<?xml version="1.0" encoding="UTF-8" standalone="no"?>
<!-- Created with Inkscape (http://www.inkscape.org/) -->

<svg
   xmlns:dc="http://purl.org/dc/elements/1.1/"
   xmlns:cc="http://creativecommons.org/ns#"
   xmlns:rdf="http://www.w3.org/1999/02/22-rdf-syntax-ns#"
   xmlns:svg="http://www.w3.org/2000/svg"
   xmlns="http://www.w3.org/2000/svg"
   xmlns:sodipodi="http://sodipodi.sourceforge.net/DTD/sodipodi-0.dtd"
   xmlns:inkscape="http://www.inkscape.org/namespaces/inkscape"
   width="513.76904"
   height="493.82657"
   id="svg9961"
   version="1.1"
   inkscape:version="0.48.0 r9654"
   sodipodi:docname="New document 7">
  <defs
     id="defs9963">
    <linearGradient
       x1="0"
       y1="0"
       x2="1"
       y2="0"
       gradientUnits="userSpaceOnUse"
       gradientTransform="matrix(-80.55455,-5.660614,-5.660614,80.55455,879.75391,352.57324)"
       spreadMethod="pad"
       id="linearGradient7063">
      <stop
         style="stop-opacity:1;stop-color:#fff59e"
         offset="0"
         id="stop7065" />
      <stop
         style="stop-opacity:1;stop-color:#ff5900"
         offset="0.25"
         id="stop7067" />
      <stop
         style="stop-opacity:1;stop-color:#b50000"
         offset="0.5"
         id="stop7069" />
      <stop
         style="stop-opacity:1;stop-color:#610000"
         offset="0.75"
         id="stop7071" />
      <stop
         style="stop-opacity:1;stop-color:#000000"
         offset="1"
         id="stop7073" />
    </linearGradient>
    <clipPath
       clipPathUnits="userSpaceOnUse"
       id="clipPath7039">
      <path
         inkscape:connector-curvature="0"
         d="M 0,800 1280,800 1280,0 0,0 0,800 z"
         id="path7041" />
    </clipPath>
    <linearGradient
       x1="0"
       y1="0"
       x2="1"
       y2="0"
       gradientUnits="userSpaceOnUse"
       gradientTransform="matrix(25.944351,34.35141,34.35141,-25.944351,826.90723,367.79492)"
       spreadMethod="pad"
       id="linearGradient7021">
      <stop
         style="stop-opacity:1;stop-color:#fff59e"
         offset="0"
         id="stop7023" />
      <stop
         style="stop-opacity:1;stop-color:#ff5900"
         offset="0.25"
         id="stop7025" />
      <stop
         style="stop-opacity:1;stop-color:#b50000"
         offset="0.5"
         id="stop7027" />
      <stop
         style="stop-opacity:1;stop-color:#610000"
         offset="0.75"
         id="stop7029" />
      <stop
         style="stop-opacity:1;stop-color:#000000"
         offset="1"
         id="stop7031" />
    </linearGradient>
  </defs>
  <sodipodi:namedview
     id="base"
     pagecolor="#ffffff"
     bordercolor="#666666"
     borderopacity="1.0"
     inkscape:pageopacity="0.0"
     inkscape:pageshadow="2"
     inkscape:zoom="0.98994949"
     inkscape:cx="27.953599"
     inkscape:cy="253.10045"
     inkscape:document-units="px"
     inkscape:current-layer="layer1"
     showgrid="false"
     fit-margin-top="0"
     fit-margin-left="0"
     fit-margin-right="0"
     fit-margin-bottom="0"
     inkscape:window-width="1366"
     inkscape:window-height="706"
     inkscape:window-x="-8"
     inkscape:window-y="-8"
     inkscape:window-maximized="1" />
  <metadata
     id="metadata9966">
    <rdf:RDF>
      <cc:Work
         rdf:about="">
        <dc:format>image/svg+xml</dc:format>
        <dc:type
           rdf:resource="http://purl.org/dc/dcmitype/StillImage" />
        <dc:title></dc:title>
      </cc:Work>
    </rdf:RDF>
  </metadata>
  <g
     inkscape:label="Layer 1"
     inkscape:groupmode="layer"
     id="layer1"
     transform="translate(-403.11547,-239.73462)">
    <g
       id="g6889"
       transform="matrix(1.25,0,0,-1.25,637.61205,511.43862)">
      <path
         d="m 0,0 c 0,0 -13.875,-76.378 -37.09,-159.288 0,0 -16.914,-5.637 -29.185,-17.909 0,0 30.903,-4.491 48.811,13.418 17.179,121.98 18.35,128.688 27.409,161.912"
         style="fill:#8a644a;fill-opacity:1;fill-rule:nonzero;stroke:none"
         id="path6891"
         inkscape:connector-curvature="0" />
    </g>
    <g
       id="g6893"
       transform="matrix(1.25,0,0,-1.25,683.27725,511.43862)">
      <path
         d="m 0,0 c 0,0 13.879,-76.378 37.091,-159.288 0,0 16.914,-5.637 29.185,-17.909 0,0 -31.021,-3.902 -48.928,14.007 0,0 -21.927,141.65 -27.29,161.323"
         style="fill:#8a644a;fill-opacity:1;fill-rule:nonzero;stroke:none"
         id="path6895"
         inkscape:connector-curvature="0" />
    </g>
    <g
       id="g6897"
       transform="matrix(1.25,0,0,-1.25,625.54655,509.9835)">
      <path
         d="m 0,0 c 0,0 30.557,-15.539 61.468,5.748 2.596,1.789 0,3.06 0,3.06 0,0 -19.457,25.243 -19.457,27.895 0,0 -29.629,-5.306 -34.935,0 C 7.076,36.703 8.402,2.653 0,0"
         style="fill:#000000;fill-opacity:1;fill-rule:nonzero;stroke:none"
         id="path6899"
         inkscape:connector-curvature="0" />
    </g>
    <g
       id="g6901"
       transform="matrix(1.25,0,0,-1.25,625.02165,399.69174)">
      <path
         d="m 0,0 c 0,0 34.386,24.403 55.152,0 0,0 -9.195,-29.419 -9.195,-45.508 0,0 -28.806,-8.801 -37.609,0 0,0 -0.63,29.133 -8.348,45.508"
         style="fill:#8a644a;fill-opacity:1;fill-rule:nonzero;stroke:none"
         id="path6903"
         inkscape:connector-curvature="0" />
    </g>
    <g
       id="g6905"
       transform="matrix(1.25,0,0,-1.25,664.24035,299.9335)">
      <path
         d="m 0,0 c 0,0 10.392,25.426 30.07,37.587 0,0 -1.547,-16.141 -9.729,-24.322 C 12.161,5.085 15.035,11.054 0,0"
         style="fill:#5a3d1b;fill-opacity:1;fill-rule:nonzero;stroke:none"
         id="path6907"
         inkscape:connector-curvature="0" />
    </g>
    <g
       id="g6909"
       transform="matrix(1.25,0,0,-1.25,645.26335,299.9335)">
      <path
         d="m 0,0 c 0,0 -10.392,25.426 -30.07,37.587 0,0 1.548,-16.141 9.729,-24.322 C -12.16,5.085 -15.034,11.054 0,0"
         style="fill:#5a3d1b;fill-opacity:1;fill-rule:nonzero;stroke:none"
         id="path6911"
         inkscape:connector-curvature="0" />
    </g>
    <g
       id="g6913"
       transform="matrix(1.25,0,0,-1.25,642.27265,306.02475)">
      <path
         d="m 0,0 c 0,0 -20.021,18.806 -42.975,21.684 0,0 8.12,-14.037 18.96,-18.076 C -13.174,-0.431 -18.27,3.804 0,0"
         style="fill:#5a3d1b;fill-opacity:1;fill-rule:nonzero;stroke:none"
         id="path6915"
         inkscape:connector-curvature="0" />
    </g>
    <g
       id="g6917"
       transform="matrix(1.25,0,0,-1.25,668.15275,306.02475)">
      <path
         d="m 0,0 c 0,0 20.022,18.806 42.975,21.684 0,0 -8.119,-14.037 -18.958,-18.076 C 13.175,-0.431 18.27,3.804 0,0"
         style="fill:#5a3d1b;fill-opacity:1;fill-rule:nonzero;stroke:none"
         id="path6919"
         inkscape:connector-curvature="0" />
    </g>
    <g
       id="g6921"
       transform="matrix(1.25,0,0,-1.25,668.66175,338.35262)">
      <path
         d="m 0,0 c 0,0 5.634,1.898 8.345,0.951 0,0 2.746,-21.626 -0.532,-24.902 0,0 -8.296,16.531 -10.686,14.141 0,0 0.81,9.227 2.873,9.81"
         style="fill:#000000;fill-opacity:1;fill-rule:nonzero;stroke:none"
         id="path6923"
         inkscape:connector-curvature="0" />
    </g>
    <g
       id="g6925"
       transform="matrix(1.25,0,0,-1.25,643.38475,338.11824)">
      <path
         d="m 0,0 c 0,0 -5.756,1.484 -8.391,0.342 0,0 -1.572,-22.334 1.935,-25.366 0,0 7.476,17.659 10.032,15.448 0,0 -1.476,9.142 -3.576,9.576"
         style="fill:#000000;fill-opacity:1;fill-rule:nonzero;stroke:none"
         id="path6927"
         inkscape:connector-curvature="0" />
    </g>
    <g
       id="g6929"
       transform="matrix(1.25,0,0,-1.25,633.74595,299.28774)">
      <path
         d="m 0,0 c 0,0 -3.463,-18.647 -7.886,-18.647 0,0 19.458,-30.956 19.458,-40.683 0,0 9.728,4.421 14.151,0 0,0 11.939,35.818 15.919,39.799 0,0 -7.614,16.867 -7.614,22.174 C 34.028,2.643 18.496,40.759 0,0"
         style="fill:#8a644a;fill-opacity:1;fill-rule:nonzero;stroke:none"
         id="path6931"
         inkscape:connector-curvature="0" />
    </g>
    <g
       id="g6933"
       transform="matrix(1.25,0,0,-1.25,660.74065,333.28437)">
      <path
         d="m 0,0 c 0,0 10.907,8.255 19.456,8.255 0,0 -9.139,-3.834 -9.139,-5.013 C 10.317,3.242 2.653,2.654 0,0"
         style="fill:#ba0000;fill-opacity:1;fill-rule:nonzero;stroke:none"
         id="path6935"
         inkscape:connector-curvature="0" />
    </g>
    <g
       id="g6937"
       transform="matrix(1.25,0,0,-1.25,648.76435,333.28437)">
      <path
         d="m 0,0 c 0,0 -10.91,8.255 -19.459,8.255 0,0 9.141,-3.834 9.141,-5.013 0,0 7.664,-0.588 10.318,-3.242"
         style="fill:#ba0000;fill-opacity:1;fill-rule:nonzero;stroke:none"
         id="path6939"
         inkscape:connector-curvature="0" />
    </g>
    <g
       id="g6941"
       transform="matrix(1.25,0,0,-1.25,662.58275,324.25599)">
      <path
         d="m 0,0 c 0,0 16.361,8.845 20.783,4.424 0,0 6.633,10.169 12.16,12.159 C 32.943,16.583 11.498,11.496 0,0"
         style="fill:#000000;fill-opacity:1;fill-rule:nonzero;stroke:none"
         id="path6943"
         inkscape:connector-curvature="0" />
    </g>
    <g
       id="g6945"
       transform="matrix(1.25,0,0,-1.25,649.86175,324.25599)">
      <path
         d="m 0,0 c 0,0 -16.361,8.845 -20.783,4.424 0,0 -6.633,10.169 -12.16,12.159 0,0 21.446,-5.087 32.943,-16.583"
         style="fill:#000000;fill-opacity:1;fill-rule:nonzero;stroke:none"
         id="path6947"
         inkscape:connector-curvature="0" />
    </g>
    <g
       id="g6949"
       transform="matrix(1.25,0,0,-1.25,650.97505,357.70087)">
      <path
         d="m 0,0 c 0,0 7.517,2.877 10.612,2.877 l 0,-2.654 C 10.612,0.223 9.171,2.165 0,0"
         style="fill:#5a3d1b;fill-opacity:1;fill-rule:nonzero;stroke:none"
         id="path6951"
         inkscape:connector-curvature="0" />
    </g>
    <g
       id="g6953"
       transform="matrix(1.25,0,0,-1.25,651.89535,321.4935)">
      <path
         d="M 0,0 C 0,0 -2.505,-2.21 -0.884,-3.831"
         style="fill:none;stroke:#5a3d1b;stroke-width:0.90600002;stroke-linecap:butt;stroke-linejoin:miter;stroke-miterlimit:4;stroke-opacity:1;stroke-dasharray:none"
         id="path6955"
         inkscape:connector-curvature="0" />
    </g>
    <g
       id="g6957"
       transform="matrix(1.25,0,0,-1.25,655.76385,321.4935)">
      <path
         d="M 0,0 C 0,0 -2.505,-2.21 -0.883,-3.831"
         style="fill:none;stroke:#5a3d1b;stroke-width:0.90600002;stroke-linecap:butt;stroke-linejoin:miter;stroke-miterlimit:4;stroke-opacity:1;stroke-dasharray:none"
         id="path6959"
         inkscape:connector-curvature="0" />
    </g>
    <g
       id="g6961"
       transform="matrix(1.25,0,0,-1.25,664.05725,321.4935)">
      <path
         d="M 0,0 C 0,0 -2.507,-2.21 -0.886,-3.831"
         style="fill:none;stroke:#5a3d1b;stroke-width:0.90600002;stroke-linecap:butt;stroke-linejoin:miter;stroke-miterlimit:4;stroke-opacity:1;stroke-dasharray:none"
         id="path6963"
         inkscape:connector-curvature="0" />
    </g>
    <g
       id="g6965"
       transform="matrix(1.25,0,0,-1.25,659.63585,321.4935)">
      <path
         d="M 0,0 C 0,0 -2.508,-2.21 -0.885,-3.831"
         style="fill:none;stroke:#5a3d1b;stroke-width:0.90600002;stroke-linecap:butt;stroke-linejoin:miter;stroke-miterlimit:4;stroke-opacity:1;stroke-dasharray:none"
         id="path6967"
         inkscape:connector-curvature="0" />
    </g>
    <g
       id="g6969"
       transform="matrix(1.25,0,0,-1.25,607.15065,393.96187)">
      <path
         d="m 0,0 c 0,0 -16.828,-18.127 -36.144,-30.113 0,0 -14.103,-18.056 7.189,-8.629 0,0 33.216,32.631 35.567,34.591 L 0,0 z"
         style="fill:#8a644a;fill-opacity:1;fill-rule:nonzero;stroke:none"
         id="path6971"
         inkscape:connector-curvature="0" />
    </g>
    <g
       id="g6973"
       transform="matrix(1.25,0,0,-1.25,576.35225,382.84737)">
      <path
         d="m 0,0 c 0,0 55.275,17.688 135.757,0 0,0 -37.365,-11.719 -49.084,-23.438 0,0 -26.975,4.421 -40.684,0 0,0 -18.572,16.361 -45.989,23.438"
         style="fill:#970f00;fill-opacity:1;fill-rule:nonzero;stroke:none"
         id="path6975"
         inkscape:connector-curvature="0" />
    </g>
    <g
       id="g6977"
       transform="matrix(1.25,0,0,-1.25,605.76625,376.67662)">
      <path
         d="m 0,0 c 0,0 24.659,-14.087 25.112,-19.825 0,0 8.549,6.78 35.67,0 0,0 12.03,17.635 24.293,19.726 0,0 -15.301,-0.711 -26.945,-12.355 0,0 -16.51,4.717 -30.659,0 0,0 -10.723,10.169 -27.471,12.454"
         style="fill:#ff9900;fill-opacity:1;fill-rule:nonzero;stroke:none"
         id="path6979"
         inkscape:connector-curvature="0" />
    </g>
    <g
       id="g6981"
       transform="matrix(1.25,0,0,-1.25,580.18035,380.50362)">
      <path
         d="m 0,0 c 0,0 4.047,1.333 4.047,-1.968 0,0 3.19,0.787 3.19,-2.289 0,0 3.737,-0.399 2.689,-3.061 0,0 1.315,0.218 1.315,-3.225"
         style="fill:#8a644a;fill-opacity:1;fill-rule:nonzero;stroke:none"
         id="path6983"
         inkscape:connector-curvature="0" />
    </g>
    <g
       id="g6985"
       transform="matrix(1.25,0,0,-1.25,630.24755,412.14537)">
      <path
         d="m 0,0 c 0,0 -117.908,-181.659 -129.399,-82.602 0,0 -37.455,16.011 -48.868,38.448 0,0 -7.737,-41.102 0,-63.657 0,0 71.989,-103.322 179.835,98.927 L 0,0 z"
         style="fill:#970f00;fill-opacity:1;fill-rule:nonzero;stroke:none"
         id="path6987"
         inkscape:connector-curvature="0" />
    </g>
    <g
       id="g6989"
       transform="matrix(1.25,0,0,-1.25,632.20785,423.25012)">
      <path
         d="m 0,0 c 0,0 -28.808,-151.995 -116.373,-170.572 0,0 -6.633,-46.436 -15.921,-55.724 0,0 35.822,19.793 51.742,14.542 0,0 72.178,101.445 83.208,198.703 L 0,0 z"
         style="fill:#970f00;fill-opacity:1;fill-rule:nonzero;stroke:none"
         id="path6991"
         inkscape:connector-curvature="0" />
    </g>
    <g
       id="g6993"
       transform="matrix(1.25,0,0,-1.25,689.75315,412.14537)">
      <path
         d="m 0,0 c 0,0 117.907,-181.659 129.398,-82.602 0,0 37.456,16.011 48.868,38.448 0,0 7.738,-41.102 0,-63.657 0,0 -71.988,-103.322 -179.834,98.927 L 0,0 z"
         style="fill:#000000;fill-opacity:1;fill-rule:nonzero;stroke:none"
         id="path6995"
         inkscape:connector-curvature="0" />
    </g>
    <g
       id="g6997"
       transform="matrix(1.25,0,0,-1.25,687.79265,423.25012)">
      <path
         d="m 0,0 c 0,0 28.807,-151.995 116.373,-170.572 0,0 6.633,-46.436 15.921,-55.724 0,0 -35.821,19.793 -51.745,14.542 0,0 -72.175,101.445 -83.207,198.703 L 0,0 z"
         style="fill:#000000;fill-opacity:1;fill-rule:nonzero;stroke:none"
         id="path6999"
         inkscape:connector-curvature="0" />
    </g>
    <g
       id="g7001"
       transform="matrix(1.25,0,0,-1.25,635.45625,456.57662)">
      <path
         d="m 0,0 c 0,0 -25.859,-17.721 -51.796,-45.242 -25.934,-27.524 -1.12,-2.708 -1.12,-2.708 0,0 26.322,13.599 47.221,-13.743 0.82,-1.073 1.631,-2.208 2.43,-3.408 0,0 2.904,43.676 21.89,54.388 0,0 13.044,-36.48 8.958,-64.338 0,0 31.349,31.024 49.794,22.936 0,0 -31.396,29.666 -39.768,52.115 C 37.609,0 24.49,-5.867 0,0"
         style="fill:#005447;fill-opacity:1;fill-rule:nonzero;stroke:none"
         id="path7003"
         inkscape:connector-curvature="0" />
    </g>
    <g
       id="g7005"
       transform="matrix(1.25,0,0,-1.25,477.80485,314.47087)">
      <path
         d="M 0,0 C 0,0 28.592,-30.393 43.104,-11.181 57.615,8.034 5.738,35.899 5.738,35.899 l -3.33,23.89 c 0,0 81.497,-50.238 55.498,-84.664 C 31.905,-59.3 -20.491,-7.154 -20.491,-7.154 L 0,0 z"
         style="fill:#000000;fill-opacity:1;fill-rule:nonzero;stroke:none"
         id="path7007"
         inkscape:connector-curvature="0" />
    </g>
    <g
       transform="matrix(1.25,0,0,-1.25,-537.10729,777.84486)"
       id="g7009">
      <g
         id="g7011">
        <g
           id="g7017">
          <g
             id="g7019">
            <path
               inkscape:connector-curvature="0"
               d="m 822.352,414.038 c 0.611,-4.372 57.808,-35.555 42.696,-60.744 l 0,0 c 0,0 2.981,-5.431 -1.067,-13.498 l 0,0 c 0,0 45.525,26.975 -49.643,90.692 l 0,0 c 0,0 7.405,-12.077 8.014,-16.45"
               style="fill:url(#linearGradient7021);stroke:none"
               id="path7033" />
          </g>
        </g>
      </g>
    </g>
    <g
       transform="matrix(1.25,0,0,-1.25,-537.10729,777.84486)"
       id="g7035">
      <g
         id="g7037"
         clip-path="url(#clipPath7039)">
        <g
           id="g7043"
           transform="translate(831.2617,391.3027)">
          <path
             inkscape:connector-curvature="0"
             d="M 0,0 1.93,25.905 16.362,15.006 13.65,-3.771 0,0 z"
             style="fill:#970f00;fill-opacity:1;fill-rule:nonzero;stroke:none"
             id="path7045" />
        </g>
        <g
           id="g7047"
           transform="translate(844.6787,387.2227)">
          <path
             inkscape:connector-curvature="0"
             d="M 0,0 10.474,12.696 19.91,1.169 7.571,-8.596 0,0 z"
             style="fill:#970f00;fill-opacity:1;fill-rule:nonzero;stroke:none"
             id="path7049" />
        </g>
      </g>
    </g>
    <g
       transform="matrix(1.25,0,0,-1.25,-537.10729,777.84486)"
       id="g7051">
      <g
         id="g7053">
        <g
           id="g7059">
          <g
             id="g7061">
            <path
               inkscape:connector-curvature="0"
               d="m 863.981,339.796 c 4.006,9.493 2.121,8.508 2.121,8.508 l 0,0 c -20.472,-14.995 -54.584,13.284 -54.584,13.284 l 0,0 -20.484,1.423 c 52.843,-47.25 72.947,-23.215 72.947,-23.215"
               style="fill:url(#linearGradient7063);stroke:none"
               id="path7075" />
          </g>
        </g>
      </g>
    </g>
    <g
       id="g7085"
       transform="matrix(1.25,0,0,-1.25,471.15685,343.23062)">
      <path
         d="m 0,0 15.751,16.046 c 0,0 2.887,-3.576 7.118,-5.375 L 14.956,-7.942 C 14.956,-7.942 3.559,-2.688 0,0"
         style="fill:#970f00;fill-opacity:1;fill-rule:nonzero;stroke:none"
         id="path7087"
         inkscape:connector-curvature="0" />
    </g>
    <g
       id="g7089"
       transform="matrix(1.25,0,0,-1.25,489.85205,353.15862)">
      <path
         d="m 0,0 14.013,15.962 c 0,0 5.768,-1.424 7.174,-1.228 L 17.459,-6.479 c 0,0 -9.748,2.721 -17.459,6.479"
         style="fill:#970f00;fill-opacity:1;fill-rule:nonzero;stroke:none"
         id="path7091"
         inkscape:connector-curvature="0" />
    </g>
    <g
       id="g7093"
       transform="matrix(1.25,0,0,-1.25,522.70355,335.33749)">
      <path
         d="m 0,0 6.446,-19.462 c 0,0 23.7,5.334 20.634,27.32 L 9.365,9.927 C 9.365,9.927 7.714,2.99 0,0"
         style="fill:#970f00;fill-opacity:1;fill-rule:nonzero;stroke:none"
         id="path7095"
         inkscape:connector-curvature="0" />
    </g>
    <g
       id="g7097"
       transform="matrix(1.25,0,0,-1.25,530.20605,358.61762)">
      <path
         d="m 0,0 c 0,0 4.044,-14.126 -5.479,-21.185 0,0 12.953,-7.266 16.352,9.443 3.401,16.712 17.239,33.923 23.64,-11.985 6.401,-45.908 71.093,-102.309 89.491,-121.234 0,0 -11.044,17.562 -12.221,25.993 0,0 -73.493,64.728 -71.91,97.899 C 41.455,12.102 26.499,35.586 17.816,24.088 17.816,24.088 8.681,18.764 0,0"
         style="fill:#970f00;fill-opacity:1;fill-rule:nonzero;stroke:none"
         id="path7099"
         inkscape:connector-curvature="0" />
    </g>
    <g
       id="g7101"
       transform="matrix(1.25,0,0,-1.25,567.59485,383.40637)">
      <path
         d="m 0,0 c 0,0 5.369,6.002 11.242,1.567 0,0 2.879,-18.94 13.531,-33.691 0,0 -3.535,-11.005 2.121,-19.839 0.25,-0.391 0.52,-0.78 0.808,-1.164 C 34.487,-62.124 4.831,-34.666 0,0"
         style="fill:#000000;fill-opacity:1;fill-rule:nonzero;stroke:none"
         id="path7103"
         inkscape:connector-curvature="0" />
    </g>
    <g
       id="g7105"
       transform="matrix(1.25,0,0,-1.25,531.03005,371.08212)">
      <path
         d="M 0,0 C 0,0 16.396,46.37 31.476,15.282 31.476,15.282 11.347,68.053 0,0"
         style="fill:#000000;fill-opacity:1;fill-rule:nonzero;stroke:none"
         id="path7107"
         inkscape:connector-curvature="0" />
    </g>
    <g
       id="g7109"
       transform="matrix(1.25,0,0,-1.25,525.80665,336.30562)">
      <path
         d="M 0,0 2.48,1.62 7.273,-5.353 5.955,-12.94 0,0 z"
         style="fill:#000000;fill-opacity:1;fill-rule:nonzero;stroke:none"
         id="path7111"
         inkscape:connector-curvature="0" />
    </g>
    <g
       id="g7113"
       transform="matrix(1.25,0,0,-1.25,530.02775,333.03037)">
      <path
         d="M 0,0 C 0,0 1.585,1.176 1.478,1.957 L 6.637,-1.94 c 0,0 -1.693,-2.703 -1.573,-3.56 L 0,0 z"
         style="fill:#000000;fill-opacity:1;fill-rule:nonzero;stroke:none"
         id="path7115"
         inkscape:connector-curvature="0" />
    </g>
    <g
       id="g7117"
       transform="matrix(1.25,0,0,-1.25,533.13455,328.91662)">
      <path
         d="m 0,0 c 0,0 1.142,1.513 1.479,1.957 0,0 4.412,-0.817 5.834,-1.893 0,0 -2.067,-1.718 -1.949,-2.579 0,0 -4.584,2.623 -5.364,2.515"
         style="fill:#000000;fill-opacity:1;fill-rule:nonzero;stroke:none"
         id="path7119"
         inkscape:connector-curvature="0" />
    </g>
    <g
       id="g7121"
       transform="matrix(1.25,0,0,-1.25,533.20035,359.60024)">
      <path
         d="m 0,0 c 0,0 0.953,7.331 2.773,10.691 0,0 -0.635,-4.842 0.097,-5.395 C 2.87,5.296 0.339,1.613 0,0"
         style="fill:#ff9900;fill-opacity:1;fill-rule:nonzero;stroke:none"
         id="path7123"
         inkscape:connector-curvature="0" />
    </g>
    <g
       id="g7125"
       transform="matrix(1.25,0,0,-1.25,636.68675,483.27087)">
      <path
         d="m 0,0 c 0,0 68.55,-21.657 114.411,-80.41 0,0 -11.233,21.572 -12.839,27.997 0,0 -11.394,34.613 -106.455,60.65 L 0,0 z"
         style="fill:#970f00;fill-opacity:1;fill-rule:nonzero;stroke:none"
         id="path7127"
         inkscape:connector-curvature="0" />
    </g>
    <g
       id="g7129"
       transform="matrix(1.25,0,0,-1.25,623.77535,476.83287)">
      <path
         d="m 0,0 c 0,0 -1.405,5.93 5.174,6.849 0,0 15.591,-9.004 27.667,-12.245 0,0 3.73,-8.948 10.886,-14.353 0,0 -19.023,9.588 -32.816,7.664 0,0 -10.379,8.273 -10.911,12.085"
         style="fill:#000000;fill-opacity:1;fill-rule:nonzero;stroke:none"
         id="path7131"
         inkscape:connector-curvature="0" />
    </g>
    <g
       id="g7133"
       transform="matrix(1.25,0,0,-1.25,569.19885,391.95987)">
      <path
         d="m 0,0 c 0,0 5.685,5.35 11.089,3.004 0,0 2.99,-2.138 1.211,-4.492 0,0 -8.071,0.856 -11.075,-3.121 0,0 -1.431,1.922 -1.225,4.609"
         style="fill:#ff9900;fill-opacity:1;fill-rule:nonzero;stroke:none"
         id="path7135"
         inkscape:connector-curvature="0" />
    </g>
    <g
       id="g7137"
       transform="matrix(1.25,0,0,-1.25,571.61955,401.85249)">
      <path
         d="m 0,0 c 0,0 5.185,5.835 10.774,3.98 0,0 3.17,-1.859 1.611,-4.364 0,0 -8.115,0.134 -10.754,-4.098 0,0 -1.596,1.786 -1.631,4.482"
         style="fill:#ff9900;fill-opacity:1;fill-rule:nonzero;stroke:none"
         id="path7139"
         inkscape:connector-curvature="0" />
    </g>
    <g
       id="g7141"
       transform="matrix(1.25,0,0,-1.25,575.26705,411.40325)">
      <path
         d="m 0,0 c 0,0 4.788,6.165 10.49,4.683 0,0 3.284,-1.649 1.891,-4.252 0,0 -8.105,-0.399 -10.46,-4.797 0,0 -1.708,1.678 -1.921,4.366"
         style="fill:#ff9900;fill-opacity:1;fill-rule:nonzero;stroke:none"
         id="path7143"
         inkscape:connector-curvature="0" />
    </g>
    <g
       id="g7145"
       transform="matrix(1.25,0,0,-1.25,506.00435,289.831)">
      <path
         d="m 0,0 c 0,0 4.479,-2.163 6.704,-1.853 0,0 1.27,19.614 -1.89,24.033 C 4.814,22.18 1.22,1.613 0,0"
         style="fill:#ff9900;fill-opacity:1;fill-rule:nonzero;stroke:none"
         id="path7147"
         inkscape:connector-curvature="0" />
    </g>
    <g
       id="g7149"
       transform="matrix(1.25,0,0,-1.25,521.90155,297.403)">
      <path
         d="m 0,0 c 0,0 1.286,-2.484 3.006,-3.412 0,0 7.623,9.126 9.117,13.872 C 12.123,10.46 1.581,0.221 0,0"
         style="fill:#ff9900;fill-opacity:1;fill-rule:nonzero;stroke:none"
         id="path7151"
         inkscape:connector-curvature="0" />
    </g>
    <g
       id="g7153"
       transform="matrix(1.25,0,0,-1.25,493.02955,325.4315)">
      <path
         d="m 0,0 c 0,0 3.156,-1.256 3.331,-2.517 0,0 -10.09,-14.872 -14.418,-15.475 0,0 11.321,16.318 11.087,17.992"
         style="fill:#ff9900;fill-opacity:1;fill-rule:nonzero;stroke:none"
         id="path7155"
         inkscape:connector-curvature="0" />
    </g>
    <g
       id="g7157"
       transform="matrix(1.25,0,0,-1.25,509.49675,333.70299)">
      <path
         d="m 0,0 c 0,0 1.808,0.291 2.982,-0.598 0,0 -6.048,-14.621 -9.739,-18.119 0,0 5.961,17.665 6.757,18.717"
         style="fill:#ff9900;fill-opacity:1;fill-rule:nonzero;stroke:none"
         id="path7159"
         inkscape:connector-curvature="0" />
    </g>
    <g
       id="g7161"
       transform="matrix(1.25,0,0,-1.25,637.41425,491.93912)">
      <path
         d="m 0,0 c 0,0 -2.857,14.694 1.534,15.356 0,0 3.716,-2.512 9.906,-4.734 C 11.44,10.622 7.991,3.263 0,0"
         style="fill:#ff9900;fill-opacity:1;fill-rule:nonzero;stroke:none"
         id="path7163"
         inkscape:connector-curvature="0" />
    </g>
    <g
       id="g7165"
       transform="matrix(1.25,0,0,-1.25,499.44785,306.4655)">
      <path
         d="m 0,0 5.629,-1.075 4.077,4.03 0.718,-5.686 5.093,-2.632 -5.187,-2.44 -0.93,-5.656 -3.923,4.178 -5.665,-0.865 2.76,5.024 L 0,0 z"
         style="fill:#970f00;fill-opacity:1;fill-rule:nonzero;stroke:none"
         id="path7167"
         inkscape:connector-curvature="0" />
    </g>
    <g
       id="g7169"
       transform="matrix(1.25,0,0,-1.25,560.34635,433.72749)">
      <path
         d="m 0,0 c 0,0 8.288,19.268 9.625,24.711 0,0 -7.582,9.358 6.242,17.868 0,0 18.46,-6.684 8.158,-19.187 0,0 -3.041,-1.851 -4.882,-1.851 0,0 -7.653,-18.268 -10.386,-28.518 0,0 -7.411,0.326 -8.757,6.977"
         style="fill:#8a644a;fill-opacity:1;fill-rule:nonzero;stroke:none"
         id="path7171"
         inkscape:connector-curvature="0" />
    </g>
    <g
       id="g7173"
       transform="matrix(1.25,0,0,-1.25,703.48965,399.18887)">
      <path
         d="m 0,0 c 0,0 13.419,-63.045 14.636,-87.473 0,0 -8.143,-5.636 0.567,-20.476 0,0 4.917,-11.923 17.347,-6.617 0,0 5.262,5.72 4.93,12.362 0,0 -3.065,8.496 -6.542,11.642 L 7.397,3.785 0,0 z"
         style="fill:#8a644a;fill-opacity:1;fill-rule:nonzero;stroke:none"
         id="path7175"
         inkscape:connector-curvature="0" />
    </g>
    <g
       id="g7177"
       transform="matrix(1.25,0,0,-1.25,716.01525,482.16124)">
      <path
         d="m 0,0 c 0,0 8.549,-3.243 17.983,2.653 0,0 2.654,-3.243 2.654,-7.96 0,0 -12.382,-6.781 -20.045,-2.063 0,0 -2.547,5.416 -0.592,7.37"
         style="fill:#000000;fill-opacity:1;fill-rule:nonzero;stroke:none"
         id="path7179"
         inkscape:connector-curvature="0" />
    </g>
    <g
       id="g7181"
       transform="matrix(1.25,0,0,-1.25,718.78025,499.85049)">
      <path
         d="m 0,0 c 0,0 8.549,-3.242 17.981,2.653 0,0 2.654,-3.242 2.654,-7.958 0,0 -12.381,-6.781 -20.046,-2.064 0,0 -2.543,5.416 -0.589,7.369"
         style="fill:#000000;fill-opacity:1;fill-rule:nonzero;stroke:none"
         id="path7183"
         inkscape:connector-curvature="0" />
    </g>
  </g>
</svg>
