<?xml version="1.0" encoding="UTF-8"?>
<svg width="759.38" height="628.12" version="1.1" viewBox="0 0 759.375 628.125" xmlns="http://www.w3.org/2000/svg">
 <path d="m256.41 627.24c-2.7445-1.1206-4.763-3.7728-6.1021-8.0181-2.7879-8.8383-8.376-15.94-14.523-18.457-1.5469-0.63336-3.2996-1.6263-3.8948-2.2065-0.5953-0.58023-3.443-1.7975-6.3281-2.705s-5.2458-2.1984-5.2458-2.8687c0-0.67028-0.57063-1.4377-1.268-1.7053-0.69744-0.26763-1.7707-3.0416-2.3851-6.1643-0.61436-3.1227-1.4676-5.8943-1.8961-6.1592-1.2349-0.7632-7.8793 4.4899-12.279 9.7081-2.3027 2.7308-4.8096 4.7763-5.8539 4.7763-1.0046 0-3.9263-1.0547-6.4928-2.3438s-5.4886-2.3438-6.4937-2.3438-2.0517-0.58447-2.3258-1.2988c-0.39147-1.0202-2.1881-1.1934-8.3742-0.80747-6.3545 0.39645-8.335 0.19043-10.253-1.0665-1.3077-0.85685-2.3776-2.181-2.3776-2.9425 0-1.8656-3.2575-1.7604-8.4375 0.27262-7.6367 2.9972-8.4363 3.7084-8.4503 7.5164-0.0235 6.3937-0.70178 7.3689-6.6287 9.5299-3.0442 1.11-7.9632 2.4676-10.931 3.017-13.079 2.421-21.649 6.1599-29.752 12.98-6.7441 5.6764-10.841 6.9465-19.677 6.0997-5.5808-0.53492-6.8648-0.99819-8.3635-3.0177-1.6145-2.1755-1.6785-3.0366-0.72639-9.7691 1.8244-12.901 6.6385-17.701 17.753-17.701 3.2815 0 4.9154-0.70377 8.9124-3.8389 6.3503-4.9808 7.0391-6.484 4.5335-9.8921-3.7247-5.0663-12.482-32.971-13.684-43.603-0.49713-4.3976-0.95005-5.3982-2.6523-5.8593-1.1291-0.30588-3.9745-1.9771-6.3232-3.7139l-4.2703-3.1578-2.0381-13.014c-2.0399-13.025-2.4988-24.502-3.4067-85.202-0.15425-10.312-0.33858-19.383-0.40963-20.156-0.2762-3.0067 1.7853-28.915 2.7601-34.688 0.56594-3.3516 1.4421-8.625 1.9471-11.719 0.50497-3.0938 1.3096-7.9453 1.7881-10.781 0.47849-2.8359 1.1165-7.2656 1.4178-9.8438 0.30128-2.5781 1.1002-5.9531 1.7754-7.5s1.5152-4.2891 1.8668-6.0938c0.35153-1.8047 1.291-5.0583 2.0878-7.2303 0.79674-2.172 1.1861-4.633 0.86532-5.4691-0.44427-1.1577-2.8735 0.87519-10.192 8.5293-11.129 11.639-15.531 18.116-18.447 27.141-4.5402 14.054-6.7455 15.881-13.573 11.248-1.8995-1.2891-4.0479-2.3438-4.7741-2.3438s-2.6928 1.7078-4.3702 3.795c-2.5196 3.1352-3.5408 3.7464-5.8743 3.5156-1.9226-0.19017-3.2755-1.0866-4.2366-2.807-1.3136-2.3514-1.2666-2.6824 0.67388-4.7479 2.4042-2.5591 2.692-6.096 0.70945-8.7172-0.75704-1.0009-1.3899-2.3108-1.4062-2.911-0.03761-1.3766 9.4346-6.6702 19.068-10.656 7.986-3.3044 13.813-7.7225 26.067-19.764 4.2342-4.1608 10.781-10.115 14.549-13.231 6.2765-5.1917 8.2008-8.2185 6.0643-9.5389-0.75557-0.46697-2.877 0.86796-9.6572 6.0769-10.869 8.3503-43.574 32.271-47.715 34.899-2.6029 1.6521-2.7196 1.6462-4.6001-0.23437-2.3609-2.3609-2.4449-3.6664-0.28886-4.49 0.90234-0.34468 3.0644-2.0072 4.8045-3.6945s4.0604-3.3269 5.1562-3.6434c1.0958-0.31657 2.8361-1.5359 3.8674-2.7095 1.0312-1.1737 5.0391-4.5031 8.9062-7.3987 3.8672-2.8956 9.3516-7.147 12.188-9.4474 9.7621-7.9189 29.547-22.748 37.734-28.282 7.8824-5.3282 9.553-6.9749 7.0313-6.9306-2.1988 0.0386-17.73 8.4458-20.256 10.964-1.6438 1.6392-14.028 9.6763-25.796 16.74-5.0902 3.0557-10.364 6.9684-11.719 8.6949-5.8197 7.4144-21.347 22.728-23.097 22.778-1.0269 0.0296-3.2138-0.3743-4.8598-0.89769-2.68-0.85222-3.2911-0.66632-5.8508 1.7799-3.5292 3.3727-6.8245 3.5292-8.8612 0.42072-2.3811-3.634-1.9554-6.9164 1.0641-8.2031 1.418-0.60427 3.269-1.6724 4.1135-2.3737 1.4128-1.1732 1.3754-1.5684-0.46875-4.9523-2.3421-4.2976-1.6349-6.2949 2.79-7.8789 1.5365-0.55001 4.4614-2.0534 6.4998-3.3408 2.7147-1.7146 4.8347-2.2955 7.9249-2.1716 10.263 0.41169 12.407-0.60247 46.136-21.821 17.549-11.04 32.178-20.072 32.51-20.072 0.78633 0 3.6711-13.166 4.235-19.328 0.24143-2.6384 0.0179-8.9665-0.49678-14.062-0.51466-5.096-1.2264-12.209-1.5817-15.808-0.58506-5.9255-0.86685-6.6048-2.9897-7.2067-12.575-3.5655-19.724-6.2746-23.778-9.011-5.6447-3.8101-13.518-11.214-14.196-13.348-0.26027-0.82005-3.8503-3.7189-7.9778-6.4418-4.1275-2.723-7.9372-5.7593-8.466-6.7474-0.5288-0.98805-1.514-1.7965-2.1894-1.7965-2.8703 0-4.1706-3.1888-4.1197-10.103l0.05026-6.8213 4.6026-3.6647c5.3398-4.2516 30.448-16.891 33.707-16.968 1.2155-0.0288 6.4288 0.2059 11.585 0.52152 7.8195 0.47865 10.308 0.27092 15-1.252 4.8027-1.5589 5.9676-1.6468 7.9688-0.60094 2.077 1.0855 2.8408 0.94596 6.7112-1.2262 4.2459-2.3829 4.5375-2.4174 10.472-1.2378 3.3576 0.66737 6.9032 0.95994 7.8792 0.65016 1.5668-0.49729 6.3728-6.2182 9.2226-10.978 0.55219-0.92236 2.1806-2.8536 3.6187-4.2917s3.7906-4.9366 5.2278-7.7744c2.7465-5.4233 7.3195-11.64 13.587-18.47 5.2314-5.701 14.641-8.9859 25.819-9.0138l8.007-0.01996 12.149 7.9647c6.6821 4.3806 13.52 8.7606 15.196 9.7334 1.6758 0.97276 3.0469 2.0484 3.0469 2.3903s1.2208 1.1273 2.7128 1.7453c1.9041 0.78871 3.1848 2.3597 4.2963 5.27 0.87091 2.2805 1.937 4.1463 2.369 4.1463 0.43201 0 1.0786 1.3711 1.437 3.0469 0.35832 1.6758 0.96803 3.4688 1.3549 3.9844 0.38689 0.51563 0.93041 1.9922 1.2078 3.2812 0.27741 1.2891 0.915 3.6368 1.4168 5.2171 0.6361 2.0031 0.5626 3.9907-0.24266 6.5625-0.63532 2.029-1.7224 5.5326-2.4156 7.7856s-3.0748 7.0392-5.2922 10.636c-2.2174 3.5966-4.0317 6.7586-4.0317 7.0267 0 0.61095-7.0021 10.43-10.866 15.237-3.294 4.0982-3.441 8.9082-0.30278 9.9043 0.96361 0.30584 3.4487 1.9736 5.5225 3.7062s5.1418 3.4402 6.818 3.7946c1.6761 0.35448 4.3326 1.424 5.9033 2.3767 1.5707 0.95274 4.7347 2.0141 7.0312 2.3586 6.2782 0.94181 13.811 2.9659 17.049 4.5808 1.586 0.79122 3.4727 1.4386 4.1925 1.4386 2.2654 0 7.1836 2.8796 10.591 6.2006 7.9235 7.7236 6.6691 7.1865 11.644 4.986 3.6977-1.6357 5.4136-1.8426 10.678-1.2875 7.5726 0.7985 10.842 1.899 9.9467 3.348-0.44787 0.72466-3.2192 0.90332-8.704 0.56114-7.211-0.44988-8.5087-0.268-12.493 1.7511-5.5651 2.82-6.2184 2.8098-7.3302-0.11467-1.2388-3.2581-3.2887-3.796-6.951-1.8237-5.8037 3.1255-8.0365-0.2818-2.3224-3.5439 4.3539-2.4856 3.1665-4.1995-4.3112-6.2231-2.0625-0.55814-6.4922-1.8993-9.8438-2.9803s-8.5391-2.0941-11.528-2.2512c-3.6078-0.1897-6.0632-0.85495-7.3056-1.9793-2.8391-2.5693-8.372-4.4586-12.723-4.3443-2.7599 0.0725-7.2101 1.7616-15.22 5.7768-6.2258 3.1209-11.524 5.6744-11.773 5.6744s-0.21855-0.61289 0.0689-1.362c0.86131-2.2445 16.997-11.733 22.153-13.027 2.8897-0.7252 3.4469-3.1586 0.9375-4.0946-0.90234-0.33658-2.1512-1.3199-2.7752-2.1851-0.624-0.86524-2.4145-2.1033-3.9788-2.7513-3.0038-1.2442-2.6105-1.3884-9.173 3.3644-1.1544 0.83607-4.9771 1.8361-8.4948 2.2222s-7.9487 1.439-9.8466 2.3396c-3.8877 1.8448-7.211 1.3406-5.4163-0.82183 0.59029-0.71125 2.2198-1.5144 3.6212-1.7848 8.0969-1.5622 19.092-4.4512 20.983-5.5132 3.189-1.7914 10.402-9.2945 12.033-12.517 0.77261-1.5266 1.6286-2.9867 1.9023-3.2445 3.5879-3.3802 12.61-19.251 14.869-26.156 1.3281-4.0594 1.3426-12.935 0.0278-17.064-2.3228-7.2945-7.9882-18.567-10.177-20.25-3.6978-2.8428-10.618-6.0024-16.094-7.3484-7.953-1.9547-11.238-3.2828-10.615-4.291 0.28167-0.45578 1.9638-0.8287 3.7381-0.8287s3.2259-0.31855 3.2259-0.7079-2.5911-1.7126-5.7579-2.9406c-5.0989-1.9771-6.6784-2.1619-13.8-1.6145-4.5004 0.34592-9.4995 1.3313-11.351 2.2375-2.7549 1.348-3.3567 2.185-3.592 4.9957-0.25324 3.025-0.52186 3.3307-2.5812 2.937-4.391-0.83938-13.29 10.658-11.772 15.209 1.0848 3.2513 0.6344 27.989-0.5166 28.373-1.3826 0.46086-2.4182-8.3479-2.068-17.59 0.15361-4.0539 0.0252-7.6248-0.28534-7.9354-0.85682-0.85682-3.588 7.8753-3.588 11.472 0 2.6716-0.43697 3.3153-2.8125 4.1434-5.0298 1.7534-3.4055 6.9867 2.9899 9.6332 2.2227 0.9198 5.6834 2.4357 7.6904 3.3687s4.159 1.5007 4.7823 1.2615c1.1248-0.43162 2.3499-13.882 2.3499-25.8 0-3.0278 0.41944-5.4792 0.9375-5.4792 0.83197 0 1.0279 4.5209 1.3601 31.385 0.0446 3.6084 0.16698 3.7491 3.7961 4.3649 2.0625 0.34998 4.0429 0.35961 4.4008 0.0215 1.219-1.1518 4.3262-15.588 5.3786-24.99 0.57719-5.1562 1.5661-11.067 2.1975-13.135 1.5278-5.0037 5.1954-10.771 6.8496-10.771 1.7882 0 1.7064 0.37824-1.014 4.6875-1.2891 2.042-2.3438 4.5544-2.3438 5.5832 0 1.6539 0.29849 1.7566 2.5781 0.88699 1.418-0.54088 8.5889-0.95863 15.935-0.92832 13.224 0.05456 20.993 1.1692 22.544 3.2342 1.4117 1.8802 3.005 8.6596 3.005 12.786 0 8.5833-7.8512 32.169-14.288 42.925-1.4928 2.4941-2.0978 2.8701-3.177 1.9745-1.0438-0.86625-2.1925-0.69587-5.2932 0.78509-2.1781 1.0403-5.1401 2.3666-6.5824 2.9474-3.2752 1.3189-12.145 1.3826-13.431 0.0963-0.65454-0.65454-1.5055-0.35647-2.6766 0.9375-2.307 2.5493-6.0933 2.3913-9.9595-0.41548-1.752-1.272-4.1479-3.0166-5.3241-3.877-2.8723-2.101-3.752-0.93169-1.7934 2.3839 2.6756 4.5295-0.0568 8.4106-5.9586 8.4634-1.8305 0.0164-3.7289 0.37833-4.2188 0.8043-0.48984 0.42597-2.6818 1.3367-4.8711 2.0238-3.5851 1.1252-4.1672 1.0804-5.8594-0.45103-2.4836-2.2476-2.3697-3.7001 0.4649-5.9298 4.4386-3.4914 1.9528-5.7925-6.2575-5.7925-1.508 0-4.0099-0.65573-5.5597-1.4572-1.9291-0.99756-4.9453-1.3914-9.5628-1.2487-3.7097 0.11464-8.9523-0.13127-11.65-0.54646-5.4164-0.83355-7.2818 0.0213-8.8083 4.0361-0.83223 2.189-1.1179 2.2523-8.2877 1.8372-4.0842-0.23643-8.0442-0.94316-8.8002-1.5705-1.1169-0.92698-1.9609-0.63712-4.5053 1.5474-1.8817 1.6156-5.1881 3.138-8.2871 3.8157-4.5128 0.98698-5.7997 0.9067-10.312-0.64324-2.8359-0.97401-5.3014-1.3916-5.4788-0.92794-0.17741 0.46366 1.2225 2.7286 3.1109 5.0331 4.7574 5.8057 16.78 12.664 26.244 14.97 4.6245 1.1269 8.5524 2.7322 10.313 4.2148 1.5636 1.3171 4.0669 3.0165 5.5628 3.7766 5.3005 2.6931 9.6877 12.355 7.0519 15.531-0.84996 1.0241-1.165 3.785-0.99632 8.7322 0.25826 7.5759-0.87051 13.711-3.7893 20.596-1.2972 3.0597-1.475 4.4203-0.69979 5.3543 0.7628 0.91914 0.74251 2.1516-0.0763 4.6326-2.4912 7.5484 1.301 4.5094 8.8072-7.0578 7.2186-11.124 9.9678-21.335 10.601-39.375 0.40635-11.57 0.23285-13.421-2.0209-21.562-3.5789-12.928-3.6917-13.468-2.6892-12.848 1.3876 0.85756 4.7051 8.1543 5.8416 12.848 1.7447 7.2058 3.8437 22.239 3.8437 27.528 0 6.3695-8.4338 36.13-11.265 39.752-1.1024 1.4102-5.4522 6.3101-9.6663 10.889-4.2141 4.5785-8.5057 9.852-9.537 11.719s-2.1466 3.5199-2.4786 3.6735-0.41866 0.99738-0.19262 1.875-0.70934 4.5488-2.0786 8.1582-2.7032 7.7334-2.9642 9.1644c-0.261 1.4311-1.1971 3.1186-2.0802 3.75-3.2635 2.3334-4.9788 6.1281-4.3309 9.5814 0.3852 2.0533 0.24883 3.2854-0.36364 3.2854-1.0701 0-1.1745 6.6055-0.16165 10.226 0.34729 1.2413-0.3366 8.6241-1.5197 16.406-1.1831 7.7822-2.4497 19.423-2.8146 25.868-0.90799 16.038-0.46668 73.707 0.71742 93.75 0.53308 9.0234 1.3495 24.422 1.8144 34.219s1.288 19.711 1.8293 22.031c0.54128 2.3203 0.99446 5.7212 1.0071 7.5576 0.02838 4.1335 2.8881 7.453 6.3876 7.4144 1.572-0.0173 4.1326-1.4031 6.7122-3.6326l4.1706-3.6046-1.2332-10.664c-1.3972-12.083-2.3518-26.08-3.7642-55.196-0.53777-11.086-1.4441-27.75-2.0141-37.031-1.6296-26.536 7e-3 -81.818 2.8882-97.5 0.47351-2.5781 1.2702-7.2188 1.7704-10.312 1.6397-10.142 3.6133-17.397 5.2135-19.165 0.8651-0.95591 2.3895-5.6394 3.3876-10.408s2.3036-9.2587 2.9011-9.9787c2.2946-2.7648 2.4204 0.51818 0.34816 9.083-3.8718 16.003-6.1305 27.586-6.1251 31.412 3e-3 2.0659-0.43128 5.23-0.9649 7.0312-1.2996 4.3871-1.225 99.304 0.0876 111.39 0.54176 4.9889 1.2027 10.125 1.4687 11.415 0.8851 4.2889 2.0422 23.868 1.5606 26.406-0.26096 1.3747 0.23113 4.6238 1.0935 7.2202 0.94213 2.8365 1.462 6.8906 1.3023 10.157-0.1461 2.9898 0.10489 6.0317 0.55775 6.7599 0.45287 0.72813 0.96879 7.9 1.1465 15.938 0.27117 12.264 0.59549 14.99 2.0174 16.957 2.5282 3.4975 11.548 7.6041 17.984 8.1877 4.9791 0.4515 6.2591 0.15782 12.752-2.9257l7.2175-3.4276-0.59802-8.6516c-0.55287-7.9981-1.9098-16.714-5.7984-37.245-0.8301-4.3828-2.1098-11.766-2.8437-16.406-0.73394-4.6406-1.7498-10.336-2.2575-12.656-1.926-8.8027-6.7207-39.365-8.4571-53.906-0.55412-4.6406-1.4111-11.602-1.9044-15.469-0.49332-3.8672-1.1447-9.5625-1.4476-12.656s-1.2575-10.266-2.1214-15.938c-2.5858-16.977-1.6793-79.891 1.1926-82.763 1.4508-1.4508 1.5927 2.3878 0.81372 22.008-0.85203 21.459-0.57498 28.69 2.1304 55.6 0.80348 7.9922 1.8599 19.594 2.3476 25.781 0.4877 6.1875 1.0931 11.909 1.3452 12.715 0.25219 0.80592 0.88122 5.4466 1.3978 10.312 0.51662 4.866 1.3551 10.957 1.8633 13.535 1.5125 7.6732 2.7417 15.209 4.6643 28.594 0.99988 6.9609 2.6524 17.086 3.6723 22.5 3.787 20.104 4.9756 27.716 5.7681 36.944 1.1687 13.608 2.6458 20.461 4.7738 22.149 1.7851 1.4159 14.866 2.5113 14.866 1.2449 0-0.32187-0.94922-2.1116-2.1094-3.9771-1.7991-2.893-2.1939-5.1844-2.6838-15.579-0.31591-6.7031-0.88329-15.773-1.2608-20.156-0.37756-4.3828-0.70393-8.6016-0.72528-9.375-0.0214-0.77344-0.34959-1.8281-0.72944-2.3438-0.37985-0.51563-0.76029-3.8515-0.84544-7.413-0.0851-3.5615-0.32361-6.7486-0.52993-7.0824-0.2063-0.33382-0.60503-4.5917-0.88606-9.462s-0.9291-13.496-1.4402-19.168c-0.51105-5.6719-1.5778-19.172-2.3706-30-0.79277-10.828-1.6443-22.008-1.8922-24.844s-0.79712-10.026-1.2204-15.979-1.0662-11.302-1.4287-11.889-0.71-12.9-0.77225-27.364c-0.0911-21.175 0.14016-26.603 1.1875-27.865 0.71537-0.86227 1.3007-3.0784 1.3007-4.9247 0-2.3552 0.45539-3.445 1.526-3.652 1.3633-0.26365 1.5927 2.1843 2.1515 22.955 0.9405 34.961 1.9698 57.772 2.6778 59.344 0.3484 0.77344 1.0886 9 1.6449 18.281 2.0426 34.08 4.3485 65.092 5.0886 68.438 0.99963 4.5184 3.3228 28.544 4.2154 43.594 0.53516 9.0234 1.4499 19.432 2.0328 23.131 1.0069 6.3893 1.2599 6.868 5.0772 9.6094 4.9924 3.5852 8.5108 3.6359 15.43 0.22225l5.1562-2.544-0.0595-6.0684c-0.0738-7.5239-1.3033-18.472-2.3992-21.364-0.4524-1.1937-0.82252-3.4503-0.82252-5.0146s-0.59643-4.1736-1.3254-5.7984c-2.2623-5.0424-3.4375-9.6357-2.8542-11.156 0.30739-0.80107 0.0575-3.924-0.55548-6.94-0.61291-3.0159-1.413-7.5928-1.7779-10.171-0.36491-2.5781-1.5599-9.3281-2.6555-15-2.6755-13.85-5.6056-30.82-6.3135-36.562-0.31775-2.5781-0.97229-7.0078-1.4545-9.8438-0.82811-4.87-1.6399-11.465-5.0547-41.067-0.79139-6.8602-1.4852-19.727-1.5419-28.594-0.0566-8.8664-0.4445-18.23-0.86186-20.808-0.57443-3.5485-0.44183-5.0156 0.54568-6.038 0.71749-0.74274 1.4888-1.1646 1.7141-0.9375 0.22527 0.22713 0.66288 9.6942 0.97248 21.038 0.71546 26.215 5.6108 72.892 8.9965 85.781 0.47405 1.8047 1.527 7.0781 2.3399 11.719 0.8129 4.6406 2.9704 16.453 4.7945 26.25 1.8241 9.7969 3.7408 20.133 4.2594 22.969 0.51859 2.8359 1.9188 9.375 3.1117 14.531 1.1928 5.1562 2.6516 11.695 3.2417 14.531 3.802 18.271 3.6422 17.975 11.331 20.978 11.155 4.357 12.628 1.3914 7.1032-14.307-6.06-17.219-13.631-41.208-16.055-50.866-1.3402-5.3416-2.8294-10.978-3.3093-12.524-2.5995-8.3793-5.6292-19.83-7.4414-28.125-1.1265-5.1562-2.6016-11.484-3.2781-14.062-2.1434-8.169-4.3912-24.916-4.9286-36.722-0.44414-9.7562-0.75415-11.471-2.139-11.833-2.6834-0.70173-3.8653-8.2313-3.3415-21.288 1.3507-33.667 1.824-41.153 2.8562-45.174 0.89217-3.4753 0.88053-4.9805-0.0558-7.2072-0.85363-2.0302-1.0615-6.9458-0.74597-17.639 0.5998-20.325 2.0881-31.354 5.3528-39.668 0.70869-1.8047 1.8059-4.6262 2.4383-6.2701 0.63238-1.6439 1.9614-4.5807 2.9533-6.5264 0.99196-1.9456 1.8035-4.0811 1.8035-4.7455 0-0.66441 0.42187-1.208 0.9375-1.208 2.0719 0-0.32168 10.574-3.6077 15.938-1.1057 1.8047-2.0119 4.2582-2.0138 5.4523-2e-3 1.194-0.48523 3.0711-1.074 4.1712s-1.1286 5.3966-1.1997 9.5478c-0.0711 4.1511-0.47752 8.3913-0.90328 9.4225-0.42574 1.0312 3.7565-2.74 9.2938-8.3806 10.008-10.195 13.744-15.847 15.071-22.803 0.35186-1.8434 1.6342-3.8069 3.2271-4.9411 1.4538-1.0352 2.7769-2.8227 2.9403-3.9723 0.444-3.124 2.2116-1.5981 1.9226 1.6598-0.1372 1.5469-0.85741 4.3579-1.6004 6.2467-1.7804 4.5259-0.34241 5.9281 5.1312 5.0033 2.5636-0.43312 4.2871-0.25262 5.2545 0.55032 0.8347 0.69274 4.1445 1.2258 7.8763 1.2685 6.307 0.0722 6.5017 0.14899 9.6697 3.8149l3.2331 3.7413 12.53 0.20228c6.8915 0.11127 16.327 0.82922 20.968 1.5955 12.164 2.0085 24.821 2.6194 24.932 1.2035 0.17319-2.2148 1.6822-18.168 2.5896-27.376 1.7073-17.327 4.8038-44.946 5.7546-51.328 2.1988-14.76 2.8252-19.733 4.2213-33.516 0.80955-7.9922 2.1151-19.383 2.9013-25.312 0.78617-5.9297 1.8152-14.578 2.2867-19.219s1.3196-12.445 1.8847-17.344c1.7873-15.494 2.6393-25.401 3.3329-38.758 0.75392-14.519 1.1581-15.263 6.6731-12.293 2.879 1.5504 3.1748 2.0597 2.6716 4.6004-1.2178 6.1495-2.2643 20.033-1.9466 25.826 1.5815 28.835 3.0832 39.54 6.6909 47.698 1.2728 2.8781 2.6832 6.7181 3.134 8.5332 0.45089 1.8151 1.9228 6.4643 3.271 10.331 1.3482 3.8672 3.11 8.9297 3.9153 11.25 0.80526 2.3203 2.2503 7.1719 3.2111 10.781 1.7071 6.4123 4.4249 16.32 8.3581 30.469 1.075 3.8672 2.3986 9.3516 2.9412 12.188 0.54263 2.8359 1.3838 6.4788 1.8693 8.0953 0.48549 1.6165 0.97843 9.3155 1.0954 17.109 0.15573 10.375 0.5177 14.17 1.3516 14.17 1.5118 4.9e-4 3.3575 3.5495 2.7157 5.222-0.2802 0.73017 0.63445 2.3875 2.0372 3.6913 2.3653 2.1985 2.5309 2.8467 2.3368 9.1485-0.19328 6.2748-0.42129 6.9628-3.0469 9.1944-1.5609 1.3266-2.838 2.7412-2.838 3.1435 0 1.1734-8.4504 10.277-10.65 11.473-1.3536 0.73602-2.2235 2.4137-2.6734 5.1562-0.77538 4.7261-2.2801 14.41-3.691 23.753-0.54505 3.6094-1.4161 7.8281-1.9357 9.375-5.1613 15.366-7.6108 22.067-9.0806 24.844-0.95534 1.8047-2.6172 5.8125-3.693 8.9062-1.8236 5.2445-14.134 30.429-15.994 32.72-0.45962 0.56631-2.8418 4.8265-5.2937 9.4672-2.4519 4.6406-4.9402 9.0703-5.5296 9.8438-0.5894 0.77344-1.6711 2.6719-2.4037 4.2188-0.73262 1.5469-2.0338 3.8672-2.8914 5.1562-5.4957 8.2599-14.914 37.822-14.914 46.812 0 5.0263-0.77858 6.6257-3.2253 6.6257-2.9548 0-3.1294-0.41318-2.2811-5.3972 0.41627-2.4456 1.3992-14.782 2.1842-27.415 1.808-29.094 2.9092-43.52 4.7591-62.344 0.81077-8.25 1.8643-20.484 2.3411-27.188 0.47686-6.7031 1.3323-18.094 1.901-25.312 0.56869-7.2188 1.3229-20.086 1.676-28.594 0.39959-9.6279 1.0916-16.265 1.8327-17.578 0.6549-1.1602 1.0704-2.1124 0.92337-2.1161-14.15-0.35534-28.327-1.2654-31.12-1.9976-2.0157-0.52847-9.1876-1.077-15.938-1.219-9.8014-0.20616-13.5-0.68145-18.366-2.3604-5.5221-1.9051-12.563-2.646-27.429-2.8864-1.9902-0.0322-4.001 1.4226-8.7403 6.3235-3.3854 3.5009-6.751 7.7076-7.479 9.3481-0.72801 1.6405-1.7868 3.269-2.353 3.6189-0.56611 0.34987-1.8614 2.5774-2.8784 4.95-1.8909 4.4113-2.118 8.4794-1.7932 32.116 0.0679 4.9389-0.34843 10.212-0.9251 11.719-1.3751 3.5921-1.3711 61.853 5e-3 65.471 0.53247 1.4005 0.96128 4.101 0.95291 6.001-0.0201 4.5561 3.2715 22.223 6.757 36.267 1.5356 6.1875 3.1251 12.938 3.532 15 0.98227 4.9778 3.2636 13.172 4.9593 17.812 0.75364 2.0625 2.1114 6.9141 3.0173 10.781s3.4272 12.516 5.603 19.219c2.1758 6.7031 4.9068 15.282 6.0689 19.065 1.1621 3.7828 3.7593 10.458 5.7715 14.835 4.9485 10.762 6.5846 17.255 5.4153 21.49-0.50236 1.8194-1.5476 3.5514-2.3228 3.8489-1.0851 0.41639-1.2692 1.429-0.80023 4.4013 0.85277 5.4047 3.0312 12.724 4.4753 15.036 0.66963 1.0722 2.4161 5.1135 3.881 8.9807s3.0278 7.432 3.473 7.9219c1.2804 1.4087 0.94363 6.9119-0.60645 9.9094-1.4283 2.7621-4.4969 5.0142-6.9408 5.0941-2.6517 0.0867-1.955 2.2301 1.6538 5.0883 2.0304 1.6081 3.9754 2.9238 4.3223 2.9238 0.34693 0 1.9737 1.0195 3.6151 2.2655s4.6987 2.9479 6.794 3.7819c2.6561 1.0572 5.4572 3.5331 9.2506 8.1765 9.386 11.489 10.716 17.132 5.4986 23.332-3.8919 4.6252-11.516 7.3455-15.746 5.6182zm11.428-5.44c4.8074-4.2149 5.176-8.8029 1.2574-15.652-3.0662-5.3592-9.4812-11.23-16.539-15.135-5.9718-3.3045-13.49-9.5762-13.49-11.253 0-0.72542-0.40719-1.319-0.90488-1.319s-2.3463-1.2656-4.1081-2.8125c-2.5701-2.2565-4.0591-2.8125-7.5326-2.8125-4.7478 0-4.4817-0.44877-4.6493 7.8401-0.10626 5.2558 1.7574 7.4024 7.8515 9.0434 3.9153 1.0543 12.822 8.033 17.312 13.565 1.5469 1.9057 4.3069 6.9086 6.1334 11.118l3.3209 7.6526 4.1791 0.56232c2.2985 0.30927 4.431 0.62568 4.7388 0.70313 0.30782 0.0774 1.4018-0.59748 2.431-1.4998zm-181.36-4.968c2.2217-0.61701 4.5644-2.2923 6.4004-4.5769 4.2978-5.3481 13.463-9.702 26.658-12.664 6.1875-1.3889 13.148-3.2496 15.469-4.135 3.8791-1.4802 4.2188-1.8714 4.2188-4.8596v-3.2498l-5.0947 0.21968c-2.8021 0.12083-5.5232 0.64817-6.0469 1.1719-1.4802 1.4802-10.263 1.121-13.628-0.55736-3.9949-1.9929-8.1227-1.1107-11.891 2.5412-3.8459 3.7276-14.005 7.4058-20.455 7.4058h-4.9982l-1.905 4.4531c-1.0478 2.4492-2.0139 5.0859-2.1471 5.8594-0.49245 2.8607 1.2279 8.3444 2.7442 8.747 2.8781 0.76427 7.1556 0.62174 10.675-0.3557zm114.76-37.33c3.5482-4.0909 2.891-4.7772-4.5941-4.7971-5.1777-0.0138-6.7038-0.9309-4.2188-2.5353 0.64454-0.41613 5.6016-0.96837 11.016-1.2272l9.8438-0.47062-0.24373-4.6875c-0.21088-4.0555-2.4176-12.586-4.8502-18.75-1.5172-3.8442-2.8748-8.6194-2.8748-10.112 0-2.607-2.938-3.4678-6.5756-1.9266-1.8605 0.78824-5.489 1.2914-8.4244 1.1682-2.8359-0.11902-6.3201 0.10986-7.7425 0.50863-4.2809 1.2001-4.2609 3.9859 0.14829 20.59 1.0831 4.0786 1.9692 8.2122 1.9692 9.1859 0 0.97368 0.84375 3.5167 1.875 5.6511s1.875 5.4539 1.875 7.3766c0 4.0212 0.9006 4.6008 6.0938 3.9216 2.8057-0.36695 4.4937-1.3479 6.7035-3.8956zm-71.86 2.3787c3.5826-0.9311 4.2188-1.4498 4.2188-3.4402 0-1.2891-0.47393-3.1875-1.0532-4.2188-0.57925-1.0312-2.196-7.9922-3.5928-15.469-1.3968-7.4766-2.9524-15.788-3.457-18.471-0.63091-3.3536-1.4467-5.0448-2.6117-5.4146-0.93183-0.29575-2.4481-1.3707-3.3694-2.3888-1.6472-1.8202-6.9149-2.5707-8.3027-1.183-1.403 1.403-9.6262 4.0179-12.638 4.0186-3.0314 7.3e-4 -3.1306 0.11496-2.6459 3.0476 0.97043 5.8716 2.1955 10.565 3.2874 12.595 0.60591 1.1263 1.1016 3.1302 1.1016 4.4531s0.42187 2.4054 0.9375 2.4054c0.51562 0 0.95092 1.3711 0.96731 3.0469 0.0164 1.6758 0.63162 3.8417 1.3672 4.8132 0.73552 0.97149 1.8439 4.0301 2.4631 6.7969 0.95545 4.2694 1.4469 5.0305 3.2481 5.0305h2.1223l-1.909-6.7456c-1.0499-3.7101-2.494-8.4038-3.209-10.43s-1.3001-4.6615-1.3001-5.8553-0.41086-2.4245-0.91302-2.7348c-0.50216-0.31036-0.82657-2.1282-0.72088-4.0397 0.10567-1.9115-0.1354-5.0575-0.53571-6.9911-0.63924-3.0876-0.51027-3.5156 1.0594-3.5156 1.4806 0 1.8912 0.92506 2.3931 5.3906 1.2061 10.732 2.31 15.862 5.2957 24.609 1.6718 4.8984 2.9989 10.25 2.9489 11.892-0.0722 2.374 0.33505 3.0681 1.9877 3.388 3.8108 0.73747 8.5977 0.51796 12.86-0.58974zm11.484-2.2268c-1.1602-0.22346-3.0586-0.22346-4.2188 0-1.1602 0.22345-0.21093 0.40628 2.1094 0.40628s3.2695-0.18283 2.1094-0.40628zm37.545-0.58967c0.48213-1.2564-0.32452-5.5027-2.7008-14.217-0.703-2.5781-2.1956-9.75-3.3169-15.938-1.7882-9.8672-2.3746-11.567-4.7706-13.828-3.3074-3.1212-3.8614-3.1553-7.6277-0.46875-6.9796 4.9785-11.529 6.3281-21.332 6.3281h-9.2819v2.4694c0 2.4986 1.1266 7.476 3.0483 13.468 0.57879 1.8047 1.5045 6.6562 2.0571 10.781 1.163 8.6811 1.1359 8.6702 10.279 4.1471 8.4117-4.1613 11.255-3.6374 20.007 3.6872 2.4489 2.0494 5.5072 3.9152 6.7962 4.1464 4.5475 0.81531 6.367 0.6622 6.8421-0.57575zm-26.261-2.3927c1.6319-1.6319-4.9701-1.2533-7.769 0.44553-2.27 1.3778-2.2011 1.4096 2.1909 1.0102 2.4941-0.22677 5.0042-0.88189 5.5781-1.4558zm-52.619-12.469c-2.0871-6.3488-4.4296-14.286-5.2055-17.637-0.77597-3.3516-1.6162-6.9375-1.8671-7.9688-0.57792-2.3751 0.01837 8.4949 0.65447 11.931 0.26024 1.4056 2.0514 7.2921 3.9804 13.081 3.175 9.5283 4.9768 13.331 5.9007 12.453 0.18242-0.17338-1.3759-5.5097-3.463-11.859zm145.61 3.0301c0.30433-0.49243-1.1145-4.3948-3.1529-8.6719-3.5294-7.4057-8.6347-22.098-9.9506-28.636-0.46235-2.2973-1.1138-3.055-2.6481-3.0801-1.1192-0.0183-3.0896-0.63613-4.3786-1.373-3.8048-2.175-7.0464-1.6327-12.609 2.1094-5.9465 4.0001-5.8308 2.6621-1.4786 17.109 1.631 5.4141 3.3882 11.32 3.905 13.125 2.4475 8.5474 1.7344 8.0551 11.861 8.1883 5.0068 0.0658 10.369 0.53445 11.916 1.0414 3.7228 1.22 5.8604 1.2813 6.5364 0.18754zm-159.84-49.648c0.56998-2.1168 0.72659-6.4786 0.37026-10.312-0.40504-4.358-0.28312-6.6442 0.35431-6.6442 1.1814 0 2.3114-2.6655 1.6107-3.7993-1.3642-2.2073-3.0115-96.39-2.1226-121.36 0.79506-22.331 1.2875-28.901 2.4942-33.281 0.4972-1.8047 1.3851-7.0781 1.9731-11.719 0.58802-4.6406 1.3166-9.4417 1.6191-10.669 0.40471-1.6421 0.20548-2.1183-0.75418-1.8027-0.7173 0.2359-1.4337 1.662-1.5921 3.1691-0.15835 1.5071-1.329 8.977-2.6015 16.6-3.2294 19.346-5.273 50.848-4.544 70.047 0.32305 8.5078 0.71723 23.695 0.87596 33.75s0.563 20.391 0.89838 22.969c1.1955 9.1899 1.0668 29.612-0.1932 30.657-0.64841 0.53814-1.2388 2.5088-1.312 4.3792l-0.13304 3.4008-0.60971-3.75c-0.33534-2.0625-0.27496-4.728 0.13419-5.9234 0.97714-2.8549 0.07493-29.194-1.2261-35.795-3.495-17.734-2.4035-76.437 2.0744-111.56 2.5521-20.019 2.6054-20.837 1.2712-19.503-0.58439 0.58439-2.0219 8.6686-3.3013 18.565-0.49993 3.8672-1.312 9.9844-1.8046 13.594-1.9867 14.557-2.361 26.378-2.2558 71.25 0.1086 46.338 1.4887 79.462 3.409 81.824 0.70738 0.8701 0.42254 1.7875-1.0375 3.3417-1.1069 1.1783-2.0126 2.5581-2.0126 3.0663 0 1.7104 2.2313 3.174 4.8389 3.174 2.2174 0 2.7306-0.52629 3.5766-3.6683zm-6.1898-49.3c0.0022-5.6719 0.15653-7.8713 0.34314-4.8876s0.18488 7.6243-0.0038 10.312c-0.18873 2.6882-0.34141 0.24702-0.33929-5.4248zm36.285 37.969c-0.57203-3.3516-1.451-17.484-1.9532-31.406-0.50225-13.922-1.6373-32.484-2.5224-41.25-1.0803-10.7-1.6227-24.469-1.6505-41.897-0.0435-27.326-1.3026-32.388-2.171-8.7278-0.49912 13.598 1.096 50.15 2.6184 60 0.47816 3.0938 1.0842 12.278 1.3466 20.408 0.73185 22.67 1.4598 35.293 2.3912 41.467 0.46678 3.0938 1.1702 7.7344 1.5631 10.312l0.71444 4.6875 0.35162-3.75c0.19338-2.0625-0.11641-6.4922-0.68844-9.8438zm-41.599-21.797c-0.22346-1.1602-0.40628-0.21093-0.40628 2.1094s0.18283 3.2695 0.40628 2.1094c0.22346-1.1602 0.22346-3.0586 0-4.2188zm-0.16849-23.644c-0.76464-8.7033-1.028-13.856-1.2623-24.693-0.24661-11.41-2.0434-8.7764-2.0434 2.9947 0 9.9592 1.5344 29.045 2.5335 31.514 1.0866 2.6849 1.4568-2.0218 0.7721-9.8158zm95.48-81.548c0.0663-8.0157-0.15895-14.679-0.50054-14.808-0.95797-0.36106-1.6421-8.5797-2.7119-32.578-0.54013-12.117-1.2584-24.773-1.5962-28.125l-0.61408-6.0938-0.63446 6.0938c-1.173 11.267-0.81897 23.799 1.1655 41.25 1.0848 9.5391 2.1475 24.094 2.3618 32.344 0.21423 8.25 0.59175 15.588 0.83892 16.306 1.1032 3.2063 1.5789-0.84105 1.691-14.389zm140.89 8.161c0.29132-1.1602 0.9058-2.1094 1.3655-2.1094s0.83587-0.60771 0.83587-1.3505c0-1.6153 9.1007-19.324 14-27.243 7.149-11.554 9.2832-15.408 14.832-26.779 7.277-14.912 7.9736-16.617 13.001-31.815 4.0773-12.325 5.6197-18.412 7.8388-30.938 0.59378-3.3516 1.4728-7.8626 1.9533-10.025 0.48054-2.1619 0.87371-6.0643 0.87371-8.6719 0-4.3632-0.17715-4.7411-2.2225-4.7411-2.0558 0-2.3022 0.54503-3.2846 7.2656-4.5183 30.907-10.014 50.291-21.864 77.109-2.9681 6.7177-13.482 27.523-15.926 31.513-1.2267 2.0036-3.2006 5.7522-4.3864 8.3303s-3.1766 6.8036-4.4241 9.3899-2.2682 5.434-2.2682 6.3281c0 0.89417-0.38061 1.6258-0.84578 1.6258-0.85137 0-2.9299 5.0161-2.8744 6.9368 0.0439 1.5185 2.7762-2.3681 3.3938-4.8274zm-236.21-0.9375c-0.23581-0.90234-0.42874-0.16406-0.42874 1.6406s0.19293 2.543 0.42874 1.6406c0.23581-0.90234 0.23581-2.3789 0-3.2812zm235.32-6.603c0.61043-1.9559 3.6663-8.9169 6.7908-15.469 3.1245-6.552 5.6809-12.122 5.6809-12.377 0-0.2555 1.4934-3.6976 3.3187-7.6492 10.849-23.488 15.968-38.779 23.334-69.698 1.8071-7.5861 4.2537-25.933 4.2819-32.109 2e-3 -0.38671-0.80822-0.70312-1.8-0.70312s-3.7376-1.4766-6.1019-3.2812c-2.4533-1.8727-5.4019-3.2908-6.8687-3.3036-1.4135-0.0123-4.2289-0.40707-6.2564-0.87728-4.2575-0.98737-11.661 0.12329-12.768 1.9156-0.41265 0.66768-1.0026 4.8255-1.3109 9.2396-0.30837 4.4141-0.96394 12.666-1.4568 18.338-0.49289 5.6719-1.3351 15.586-1.8717 22.031s-1.3998 16.359-1.9183 22.031c-0.51852 5.6719-1.3625 16.43-1.8756 23.906-1.0027 14.612-1.3695 18.419-2.7544 28.594-1.7618 12.943-2.0934 22.969-0.75976 22.969 0.67478 0 1.7263-1.6003 2.3368-3.5562zm-253.79-51.487c14.958-14.687 27.196-27.085 27.196-27.549 0-2.5023-3.8453 0.0795-11.658 7.8271-4.8094 4.7695-13.288 12.891-18.841 18.047-14.233 13.215-28.554 27.851-28.05 28.666 1.2167 1.9686 6.4414-2.5291 31.353-26.991zm-10.932 20.59c3.742-5.9588 4.5347-7.7344 3.4528-7.7344-1.7807 0-9.387 7.6934-9.387 9.4944 0 3.1041 3.5388 2.0545 5.9342-1.76zm-12.442-6.9538c2.0323-1.6332 3.695-3.52 3.695-4.1929 0-1.7034-9.7523 3.7596-10.147 5.684-0.49253 2.402 2.455 1.7208 6.4518-1.4911zm55.361-22.459c0.53105-2.7722 1.1965-6.7279 1.4788-8.7904 0.28229-2.0625 1.0964-4.0874 1.8092-4.4997 1.4837-0.85835 1.7203-3.0961 0.41276-3.9042-1.0077-0.62282-3.4 4.219-4.1523 8.4039-0.27806 1.5469-0.85509 4.7109-1.2823 7.0312-0.74314 4.0363-0.54845 8.1162 0.34468 7.2231 0.233-0.233 0.85814-2.6918 1.3892-5.464zm-72.057-4.4675c2.4492-1.2318 4.4531-2.6029 4.4531-3.0469 0-0.44398 0.59766-0.80723 1.3281-0.80723 0.73047 0 1.4688-0.35743 1.6406-0.7943 0.43712-1.111 13.707-10.456 14.847-10.456 0.51376 0 0.93411-0.42188 0.93411-0.9375 0-0.51563 0.55326-0.9375 1.2295-0.9375 0.67621 0 2.0473-0.75363 3.0469-1.6747 0.99957-0.92111 9.4112-6.479 18.692-12.351 44.005-27.84 38.505-24.188 37.678-25.015-0.57734-0.57734-56.295 33.803-60.178 37.133-1.0312 0.8843-4.8281 3.1994-8.4375 5.1447s-6.7734 3.8337-7.0312 4.1965c-0.25781 0.36279-2.5781 2.0744-5.1562 3.8037-7.9664 5.3433-11.752 8.5762-11.161 9.5318 0.34854 0.56395 1.1613 0.44218 2.1138-0.31669 0.85115-0.67812 3.5515-2.2408 6.0007-3.4726zm12.196-1.6855c3.2182-2.9323 6.1886-5.8854 6.6009-6.5625 1.0566-1.735-1.6568-1.5963-3.4283 0.17517-0.77344 0.77344-1.6463 1.4062-1.9398 1.4062-0.29345 0-2.5888 1.4766-5.1008 3.2812-2.512 1.8047-5.0591 3.2812-5.6602 3.2812-0.80238 0-0.82615 0.4984-0.08943 1.875 1.5617 2.918 3.3118 2.2891 9.6175-3.4564zm20.08-1.4655c3.9123-2.707 8.6393-5.9334 10.505-7.1697 1.8652-1.2363 4.7021-3.3457 6.3043-4.6875 4.9799-4.1707 6.63-5.4583 8.0823-6.3069 1.34-0.78297 7.53-5.8574 12.792-10.487 1.3544-1.1915 3.9801-2.9601 5.8349-3.9304 3.2408-1.6952 6.4713-5.4253 6.4713-7.472 0-1.1505-3.4689 0.6179-5.615 2.8625-0.77895 0.81469-2.0931 1.8694-2.9203 2.3438-0.82723 0.47437-3.1475 2.2078-5.1562 3.8521-5.3091 4.346-26.169 20.334-36.464 27.948-4.8803 3.6094-8.881 6.8789-8.8904 7.2656-0.03762 1.5518 2.2692 0.47716 9.0559-4.2188zm-30.78-4.6533c1.8467-1.1414 4.0429-2.7234 4.8804-3.5156 0.83749-0.79224 2.3294-1.9808 3.3154-2.6413 1.5648-1.0482 1.3361-1.1304-1.7987-0.64643-5.022 0.77525-11.344 4.5034-11.708 6.9049-0.38335 2.5255 1.1064 2.497 5.311-0.10159zm95.77-61.206c0-0.77344-0.42187-1.4062-0.9375-1.4062-0.51562 0-0.9375 0.63281-0.9375 1.4062s0.42188 1.4062 0.9375 1.4062c0.51563 0 0.9375-0.63281 0.9375-1.4062zm259.22-7.033c0.31926-0.51659-0.60506-1.3632-2.0541-1.8814-1.449-0.51819-3.7566-1.5735-5.1281-2.345-3.1173-1.7538-5.6712-0.8996-5.2904 1.7694 0.20754 1.4546 1.1668 2.146 3.5652 2.5698 5.2755 0.93205 8.2852 0.89397 8.9073-0.11271zm4.0947-5.9439c1.3689-1.6494 0.42165-2.4919-2.8017-2.4919-1.4367 0-3.7023-0.4967-5.0346-1.1038-1.9893-0.90639-2.6876-0.83866-3.905 0.37879-1.7982 1.7982-0.96892 3.5308 1.3942 2.9128 0.94354-0.24674 3.158-0.0342 4.9209 0.47221 4.3508 1.2499 4.2466 1.2531 5.4262-0.16819zm-19.127-1.8578c0.69828-0.69829 1.0362-2.3115 0.77284-3.6894-0.39071-2.0438 0.16193-2.8845 3.3441-5.0872 2.6031-1.8019 3.8234-3.3424 3.8477-4.8575 0.0301-1.8766-0.28963-2.1169-2.0738-1.5584-5.393 1.6882-7.4846 0.56077-5.0745-2.7352 1.154-1.5782 1.9563-1.6661 8.2158-0.8996 8.1093 0.99299 15.234-0.58945 14.681-3.2607-0.24014-1.16-1.2931-1.4679-4.4949-1.3144-2.2997 0.11027-6.8637-0.62801-10.142-1.6406-8.3605-2.5823-14.04-2.3008-22.873 1.1338-2.3618 0.91837-2.5781 1.4192-2.5781 5.9673 0 6.2121 2.8745 13.176 6.8527 16.602 3.2303 2.782 7.4816 3.38 9.5221 1.3394zm-242.1-2.7435c0.61427-1.7258-0.70762-22.66-1.5132-23.963-0.85224-1.379-3.071-1.4532-3.8887-0.13018-0.3347 0.54155 0.14354 2.5454 1.0627 4.4531 1.0957 2.2739 1.809 6.4552 2.0713 12.14 0.36445 7.9009 1.1732 10.576 2.2679 7.5zm266.05-2.132c1.5627-1.8829 1.1939-2.1396-4.6714-3.252-7.8538-1.4894-11.483-1.262-11.111 0.6965 0.58934 3.1045 13.581 5.2081 15.782 2.5555zm-48.826-1.7835c0.86943-1.0476 1.7222-1.1239 3.9358-0.35228 4.3304 1.5096 5.2182-0.10634 2.8014-5.0988-1.0959-2.2638-1.9925-4.8265-1.9925-5.695 0-1.4691-3.1483-2.1836-7.2656-1.649-1.6811 0.2183-1.4484-1.4983 0.2938-2.1668 2.3728-0.91054 0.56245-2.4507-2.8807-2.4507-2.0248 0-3.5051-0.58213-4.0764-1.6031-1.0038-1.7937-1.6842 1.9869-2.274 12.637-0.32425 5.8544-0.31426 5.8807 2.5481 6.7123 4.3767 1.2715 7.6808 1.1479 8.9102-0.33342zm-82.443-3.3501c0-0.52796-2.6378-0.9375-6.0384-0.9375-3.3211 0-6.2992-0.42188-6.6178-0.9375-0.88698-1.4352-4.2188-1.1141-4.2188 0.40648 0 1.529 2.6004 2.0638 11.016 2.2656 3.3749 0.0809 5.8594-0.25705 5.8594-0.79703zm134.48-1.7994c0.29299-0.47406-0.13412-1.5287-0.94913-2.3438-1.534-1.534-8.1386-1.8878-12.488-0.66894-3.6959 1.0357-0.38864 2.7815 6.0162 3.1758 3.0759 0.18936 5.8841 0.42407 6.2404 0.52157 0.35629 0.0975 0.88752-0.2106 1.1805-0.68466zm-42.676-16.133c1.8413-0.58136 4.4025-1.5745 5.6916-2.207 1.4815-0.72686 4.7114-0.98512 8.7792-0.70194 4.805 0.3345 6.6562 0.12171 7.3067-0.83991 1.169-1.7281 0.0255-28.308-1.6285-37.85-1.9711-11.373-2.9217-15.415-5.0715-21.562-1.0818-3.0938-3.6638-11.531-5.7378-18.75-2.0739-7.2188-4.1969-14.602-4.7177-16.406-1.9554-6.7764-6.4235-31.741-6.4277-35.915-2e-3 -1.5164-0.40037-2.3877-0.94019-2.054-0.51563 0.31867-0.9375 2.0762-0.9375 3.9056s-0.81227 9.7147-1.805 17.523c-0.99277 7.8081-2.2889 19.048-2.8804 24.978-0.59143 5.9297-1.697 15.211-2.4568 20.625-2.5831 18.407-3.0195 22.025-4.0711 33.75-0.57806 6.4453-1.4314 14.672-1.8962 18.281-0.46485 3.6094-1.1077 8.964-1.4286 11.899l-0.58339 5.3368 4.5138 0.35361c9.1513 0.71691 11.014 0.66929 14.291-0.36543zm32.678-0.67383c2.0202-1.2818 2.3786-7.0986 1.2085-19.609-2.5583-27.352-6.1606-41.652-21.903-86.941-1.2546-3.6094-3.4174-10.781-4.8063-15.938-1.3889-5.1562-2.9067-10.219-3.3729-11.25-0.46616-1.0312-1.0186-2.9297-1.2276-4.2188-0.33497-2.0656-0.39301-2.0099-0.48901 0.46875-0.2922 7.5446 3.1082 21.673 10.169 42.251 7.2102 21.013 11.444 35.501 13.566 46.416 4.0243 20.705 5.3632 38.692 3.3918 45.566-1.111 3.874 0.33942 5.2374 3.4632 3.2554zm-209.92-35.418c4.4462-0.88924 3.939-3.8774-1.9922-11.736-2.729-3.616-3.0899-4.5526-1.7546-4.5526 1.2618 0 8.5515 9.8164 8.5515 11.516 0 1.9574 1.7762 3.0207 3.0005 1.7964 1.3736-1.3736-2.6374-9.1364-6.9849-13.518-1.9336-1.9489-3.5156-3.9989-3.5156-4.5555 0-2.946 15.79 4.3501 21.602 9.9818 3.213 3.1133 5.8933 4.0575 6.899 2.4302 0.26769-0.43313-1.7113-3.0932-4.3978-5.9112-4.214-4.4204-9.5867-7.9128-14.728-9.5739-0.77344-0.24987-0.22928-0.48762 1.2092-0.52832 3.6318-0.10278 9.4454 3.0603 13.72 7.4648 3.3381 3.4397 5.7016 4.6887 5.692 3.0081-2e-3 -0.38672-1.294-2.6016-2.8707-4.9219s-3.2331-5.1184-3.6809-6.218c-0.52463-1.2882-1.921-2.1741-3.9262-2.4909-5.176-0.81781-9.433-2.1438-14.362-4.4734-3.5979-1.7005-6.6487-2.2856-13.125-2.5172-11.953-0.42733-12.419-0.5781-11.937-3.8632 0.35446-2.4151 0.0372-2.8446-2.7372-3.7051-10.322-3.2015-13.938-2.9351-22.945 1.69-4.1906 2.152-9.4067 4.1524-11.591 4.4454-3.6676 0.49193-3.9259 0.3873-3.3696-1.3654 0.54858-1.7284 0.076-1.9549-5.2837-2.5322-3.2374-0.34875-7.7846-0.85425-10.105-1.1233-4.1109-0.47675-7.4681 0.58518-15 4.7447-1.2891 0.7119-4.6641 2.2833-7.5 3.492s-5.9252 3.1469-6.8649 4.3071c-0.93977 1.1602-2.2802 2.1094-2.9788 2.1094-1.8702 0-5.1562 4.5912-5.1562 7.2042 0 3.2255 2.5461 7.7219 4.9668 8.7713 1.1355 0.49225 2.6973 1.3028 3.4707 1.8013 0.77344 0.49845 3.1392 1.6978 5.2573 2.6653 3.2761 1.4964 4.1077 1.5713 5.5698 0.50221 0.9453-0.69122 2.7983-1.3328 4.1177-1.4257s-0.76512-0.4093-4.6323-0.70313c-7.3833-0.56097-8.507-1.509-4.4727-3.7734 1.9275-1.0819 3.5651-1.1765 7.9129-0.45749 6.9246 1.1452 8.2376 0.87363 9.5341-1.9719 0.97317-2.1359 1.535-2.2997 7.865-2.294 5.2258 5e-3 7.4734 0.44093 9.6295 1.8688 2.7405 1.8149 8.1877 2.4516 11.173 1.306 1.6112-0.61826 2.0747-4.1184 0.54543-4.1184-0.51562 0-0.9375-2.1094-0.9375-4.6875 0-6.0745 1.3567-6.1067 8.3102-0.19727 5.9832 5.0848 9.2851 6.7598 13.326 6.7598 3.041 0 4.6358-2.2281 2.8634-4.0005-1.3128-1.3128-1.3987-5.9932-0.12448-6.7807 0.51562-0.31868 0.9375-1.4174 0.9375-2.4417 0-1.9716 3.9033-6.4646 5.6162-6.4646 0.55764 0-0.056 1.5745-1.3636 3.4989-1.3077 1.9244-2.3776 4.7948-2.3776 6.3786 0 5.2626 8.8324 11.515 18.467 13.072 3.1802 0.51404 4.3048 1.262 5.8594 3.8968 2.4193 4.1005 2.428 5.6797 0.0352 6.4391-1.0387 0.32968-1.6467 0.99092-1.3509 1.4694 0.63131 1.0215 1.9356 1.0839 5.9348 0.28406zm-81.515-7.7365c3.9438-1.1021 3.4513-2.9276-0.78987-2.9276-2.6903 0-3.8281 0.39753-3.8281 1.3375 0 0.73563-0.73828 1.5304-1.6406 1.7662-0.90234 0.23581-0.375 0.43563 1.1719 0.44405 1.5469 8e-3 3.8359-0.27069 5.0867-0.62023zm131.16-3.0758c2.8655-1.3872 5.051-3.4701 7.2534-6.9129 2.811-4.3942 8.8466-16.576 8.8466-17.855 0-0.27185-2.2148-0.36675-4.9219-0.2109l-4.9219 0.28337-0.46875 3.7192c-0.59134 4.6918-4.0193 7.0512-8.1393 5.6023-4.3408-1.5266-3.4506-4.2207 1.9705-5.9636l4.6125-1.4829 0.23928-4.9297c0.50596-10.423 4.3279-15.164 11.188-13.877 3.7791 0.70896 4.1085-0.0471 2.9074-6.6734-0.78501-4.3309-1.2498-5.1032-3.3296-5.5327-1.3295-0.27453-4.2013-0.94953-6.3817-1.5-4.9477-1.2491-25.307-0.58177-28.065 0.9199-1.3792 0.75078-2.3556 2.6249-3.0469 5.8482-1.3904 6.4832-1.342 6.7658 0.94841 5.54 1.9208-1.028 8.7395-0.79501 14.441 0.49339l2.8125 0.63561-2.3438-1.9256c-1.2891-1.059-4.6641-2.6285-7.5-3.4876l-5.1562-1.5621 3.2096-0.8716c3.9727-1.0788 9.3901 1.0956 12.787 5.1322 2.7458 3.2632 2.838 4.0834 0.52717 4.6877-1.1715 0.30635-1.7578 1.3044-1.7578 2.9922 0 3.2191-1.019 4.2078-5.0031 4.8543-2.4056 0.39038-3.8409 0.0157-5.7785-1.5083-3.2563-2.5614-3.2562-3.564 2.9e-4 -3.9387 2.7951-0.32161 3.122-1.6242 0.77877-3.1023-1.0184-0.64234-2.0754-0.55593-3.4123 0.27895-1.0653 0.66528-2.6547 0.98176-3.5321 0.70329-2.6623-0.84498-3.986 2.7822-4.3034 11.792-0.16351 4.641-0.75774 8.8986-1.3205 9.4613-0.73931 0.73931-0.29126 1.9575 1.6147 4.3903 1.4509 1.8519 3.184 4.4217 3.8514 5.7108 0.66742 1.2891 1.6777 2.6687 2.245 3.0659 0.68818 0.48179 0.32942 1.3119-1.0778 2.494-2.6684 2.2414-2.658 2.8776 0.0469 2.8776 1.1859 0 2.557 0.3918 3.0469 0.87066 2.4617 2.4065 11.122 1.8915 17.134-1.0189zm-6.8687-3.2966c-4.4904-0.9936-4.7961-1.2954-2.8125-2.7766 1.8638-1.3917 1.8624-1.4104-0.23438-3.1302-3.7951-3.1127-1.7605-5.3657 2.1646-2.3969 1.0009 0.75703 2.79 1.3898 3.9757 1.4062 1.985 0.0275 7.6878 2.4312 7.6878 3.2405 0 0.52265-7.4509 4.3066-8.232 4.1806-0.37085-0.0598-1.518-0.29545-2.5493-0.52364zm18.281-26.086c0-0.77344-0.63281-1.4062-1.4062-1.4062-1.464 0-1.86 1.1088-0.78125 2.1875s2.1875 0.68272 2.1875-0.78125zm-116.25-0.46875c1.0298-0.66554 0.33981-0.91263-2.5781-0.92315-2.1914-8e-3 -3.9844 0.40752-3.9844 0.92315 0 1.1963 4.7114 1.1963 6.5625 0zm41.658 0.0982c0.28528-0.46159-0.17208-1.1043-1.0164-1.4283-1.8252-0.70039-2.6334-0.12283-1.774 1.2677 0.75345 1.2191 2.0887 1.296 2.7903 0.1606zm80.314-1.3134c-1.2033-1.2033-2.4235-0.27328-1.5327 1.1681 0.34507 0.55834 1.0569 0.74973 1.5818 0.42531 0.64031-0.39574 0.62414-0.92012-0.0491-1.5934zm-0.0973-5.6598c0-2.0768-0.95244-2.395-4.0641-1.358-4.9253 1.6415-5.0521 2.608-0.34218 2.608 3.0469 0 4.4062-0.38564 4.4062-1.25zm-127.84 396.17c-0.98907-6.8604-1.0842-28.322-0.1267-28.578 0.57038-0.15233 1.1688 4.7059 1.5281 12.406 0.32486 6.9609 0.9074 14.238 1.2945 16.172 0.57015 2.8476 0.42905 3.5156-0.74261 3.5156-0.95642 0-1.6182-1.1911-1.9534-3.5156zm64.811 2.9297c-0.37667-0.58006-1.1356-4.166-1.6866-7.9688-0.55096-3.8027-1.4024-9.2598-1.8921-12.127-1.0308-6.0346-1.2055-21.196-0.23311-20.224 0.68616 0.68616 0.8826 2.0148 3.5084 23.728 1.5796 13.062 1.683 18.715 0.30338 16.591zm4.5934-1.9141c-1.0403-1.0402-0.73791-12.68 0.3125-12.031 0.51562 0.31867 0.9375 2.3686 0.9375 4.5553s0.46949 4.4454 1.0433 5.0192c0.57381 0.57381 0.75986 1.5019 0.41341 2.0625-0.71506 1.157-1.7877 1.3132-2.7067 0.39418zm-0.99779-15.157c-0.26589-0.43023-1.3758-9.59-2.4666-20.355-1.0907-10.765-2.1671-19.87-2.3919-20.234-0.71871-1.1629-2.4681-21.554-2.7644-32.222l-0.2864-10.312 1.3553 9.375c0.74543 5.1562 1.5651 11.062 1.8215 13.125s0.88421 6.9141 1.3951 10.781c1.7958 13.592 2.7967 23.054 3.3717 31.875 0.31934 4.8984 0.948 9.8829 1.397 11.077 1.6483 4.382 0.48352 9.9895-1.4314 6.8911zm-9.6183-39.999c4e-3 -4.125 0.16823-5.6959 0.36628-3.4908 0.19803 2.205 0.19525 5.58-7e-3 7.5-0.20144 1.92-0.36347 0.11585-0.36007-4.0092zm-1.8812-19.219c0-3.8672 0.16547-5.4492 0.36774-3.5156 0.20226 1.9336 0.20226 5.0977 0 7.0312-0.20227 1.9336-0.36774 0.35157-0.36774-3.5156zm1.3014-37.5c-0.39993-5.9297-1.0327-14.156-1.4062-18.281s-0.4413-11.086-0.15064-15.469c0.48428-7.3026 0.54306-7.4902 0.70312-2.2436 0.0961 3.1488 0.62219 11.164 1.1692 17.812 0.54698 6.6481 0.86339 15.884 0.70312 20.525l-0.2914 8.4375-0.72714-10.781zm554.08-128.67c-0.21724-0.64453 0.80229-1.904 2.2656-2.7987 3.7234-2.2767 3.3143-3.5294-1.1526-3.5294-2.0972 0-11.604-0.85965-21.126-1.9103-9.5221-1.0507-17.64-1.7083-18.039-1.4614-0.39951 0.24691-11.881-0.797-25.515-2.3198-13.633-1.5228-27.108-2.8116-29.944-2.8641-2.8359-0.0524-24.352-2.1544-47.812-4.671-49.226-5.2804-50.161-5.3289-51.582-2.6741-0.56274 1.0515-3.2143 2.9058-5.8924 4.1207-8.2183 3.7281-15.949 5.2175-27.083 5.2175-8.8306 0-10.865-0.29332-13.912-2.0053-4.5079-2.5336-5.0553-4.6447-2.2689-8.7506l2.211-3.2581-3.7585-1.1261c-3.7186-1.1141-7.4021-4.9024-7.4021-7.6126 0-0.75321 0.89624-2.5088 1.9916-3.9014 1.6198-2.0593 2.6239-2.4775 5.3786-2.2402 4.0698 0.35064 4.779-1.3349 2.4538-5.8313-2.0376-3.9404-1.1906-7.1016 2.0699-7.7249 2.4112-0.46092 10.135 1.3295 13.64 3.1619 0.89535 0.46805 2.1451 0.851 2.7772 0.851 1.1611 0 14.752 5.2357 22.055 8.4967 2.697 1.2042 4.1501 2.5237 4.5548 4.1358 0.32682 1.3021 0.78406 2.3675 1.0161 2.3675 0.23205 0 3.2449 0.40447 6.6952 0.89884 12.593 1.8043 31.959 3.7506 47.523 4.7762 8.7656 0.5776 17.414 1.416 19.219 1.8631 4.8254 1.1955 17.728 2.7917 30 3.7114 29.575 2.2165 38.242 3.0169 41.25 3.81 1.8047 0.47574 14.039 1.714 27.188 2.7518 13.148 1.0378 25.172 2.1033 26.719 2.368l2.8125 0.48116-3.0307-2.1271c-1.6669-1.1699-3.038-2.626-3.0469-3.2358-0.0355-2.4317 4.0022-2.0481 15.551 1.4773 6.6488 2.0296 15.78 4.8064 20.292 6.1706 7.725 2.3359 9.8906 4.026 7.2502 5.6578-0.90167 0.55726-40.397 8.8967-42.135 8.8967-0.45036 0-0.99658-0.52734-1.2138-1.1719zm10.256-10.144c2.1787-0.82836 2.3804-1.1482 1.1558-1.8336-0.81586-0.45659-16.214-2.1026-34.219-3.6579-18.004-1.5552-34.995-3.2589-37.756-3.7858s-5.2938-0.78912-5.628-0.58259c-0.74619 0.46117-27.545-1.9713-35.289-3.203-5.3672-0.85373-13.072-1.5059-43.594-3.6901-14.956-1.0703-29.057-2.4667-38.438-3.8064-3.3516-0.47868-11.578-1.3247-18.281-1.8801-12.982-1.0756-34.236-3.4681-37.734-4.2477-1.4826-0.3304-2.1094-0.0382-2.1094 0.98346 0 0.79944 0.52734 1.6245 1.1719 1.8335 1.2699 0.41171 25.968 3.1072 39.609 4.3228 4.6406 0.41355 11.812 1.1754 15.938 1.6929 4.125 0.51755 12.773 1.5989 19.219 2.403 19.166 2.391 66.561 6.9601 73.125 7.0496 3.3516 0.0457 10.312 0.70396 15.469 1.4628 9.1314 1.3438 19.092 2.3916 56.719 5.9664 22.231 2.1121 27.228 2.2707 30.642 0.97276zm-217.67-10.655c7.912-2.03 6.5754-3.7334-3.952-5.0366-12.036-1.49-18.521-1.4222-21.71 0.22692-5.6213 2.9069-5.6693 5.6912-0.11135 6.4497 5.0431 0.68827 20.542-0.29799 25.773-1.64zm6.8656-17.022c-0.20842-1.0263-5.5302-3.2227-17.036-7.0312-9.2032-3.0463-16.902-5.5387-17.109-5.5387-1.1629 0-0.0635 4.2827 1.8964 7.3872 2.4374 3.8611 4.6081 4.7065 12.61 4.9112 2.3848 0.061 5.6016 0.43297 7.1484 0.82658 1.5469 0.39361 5.0583 0.76557 7.8031 0.82658 4.1012 0.0911 4.9366-0.15509 4.6875-1.3816zm-354.09-33.181c-6.4993-4.1976-13.242-10.378-13.242-12.137 0-0.4776-0.62394-1.4923-1.3865-2.2549s-2.3702-3.2185-3.5725-5.4576-2.681-4.9148-3.2861-5.946-2.358-4.7016-3.8953-8.1563c-1.9059-4.2831-3.6255-6.7206-5.4054-7.6621-2.3673-1.2522-2.445-1.4453-0.83412-2.0741 1.2386-0.48353 2.1511-0.15075 3.0149 1.0996 0.68129 0.98612 1.5854 2.2148 2.0091 2.7304 1.4831 1.8049 5.8563 10.09 5.877 11.134 0.0114 0.57959 0.84583 2.1085 1.8542 3.3976 1.6906 2.1613 1.8349 2.1967 1.8542 0.45551 0.0115-1.0385-0.8229-4.1966-1.8542-7.018s-1.875-6.0601-1.875-7.1971-0.42188-2.328-0.9375-2.6467c-1.1292-0.6979-1.2614-4.2188-0.15842-4.2188 1.3048 0 3.1228 4.3519 5.3982 12.922 1.8495 6.9658 6.3132 15.145 10.455 19.159 5.0699 4.9125 16.469 13.846 17.675 13.852 1.3037 7e-3 4.7123 3.7115 3.5719 3.8823-6.2898 0.94192-8.8107 0.30386-15.263-3.8631zm23.836 0.0612c-0.50602-0.81877 7.9546-5.9265 11.881-7.1728 2.9437-0.93428-2.553 4.7866-6.3136 6.5712-3.5411 1.6804-4.8158 1.8181-5.5676 0.60162zm-14.356-8.9783c-3.7739-1.64-17.097-14.716-17.097-16.78 0-2.6812 1.5356-1.6268 7.7615 5.3295 3.364 3.7586 7.622 7.6448 9.4623 8.6358 2.9928 1.6117 3.714 1.6688 6.8321 0.54134 5.0351-1.8207 21.04-5.6985 23.52-5.6985 3.9207 0 2.1468 1.8126-3.2791 3.3507-2.9648 0.84043-8.543 2.5397-12.396 3.7762-8.0044 2.5688-10.509 2.7118-14.804 0.84504zm34.105-29.008c0.28471-0.74193 1.8535-1.6266 3.4862-1.9658 1.6327-0.33928 4.3928-1.4369 6.1336-2.4391 3.6661-2.1107 4.8968-1.6262 2.5252 0.99432-3.499 3.8663-13.385 6.6427-12.145 3.4107zm-30.814-75.25c0.73844-6.9313 2.1571-8.2561 1.8803-1.756-0.13209 3.1021-0.70461 5.7052-1.2977 5.9007-0.73387 0.24182-0.91362-1.0371-0.58255-4.1447z"/>
</svg>
